<svg width="302" height="226" viewBox="0 0 302 226" fill="none" xmlns="http://www.w3.org/2000/svg">
<path fill-rule="evenodd" clip-rule="evenodd" d="M100.32 90.2496C99.0655 90.7994 97.7409 92.4435 97.2596 94.0479C97.0569 94.7236 97.0557 95.0124 97.2525 95.7738C97.5412 96.8903 98.1973 97.616 99.5341 98.2972C100.09 98.5803 100.588 98.9261 100.641 99.0656C100.794 99.4641 101.837 99.5983 102.319 99.2813C102.696 99.0335 102.798 99.0438 103.476 99.3979C104.197 99.7753 104.234 99.7773 104.76 99.466C105.209 99.1997 105.327 99.1873 105.457 99.3931C105.543 99.5293 105.614 99.7623 105.616 99.911C105.618 100.06 105.867 100.708 106.171 101.351C106.686 102.445 106.705 102.552 106.449 102.985C106.208 103.395 106.207 103.537 106.44 104.214C106.683 104.925 106.676 105.042 106.331 105.823C105.909 106.781 105.967 107.258 106.621 108.215L107.062 108.86L106.751 110.05C106.484 111.07 106.471 111.391 106.658 112.299C106.92 113.574 106.934 116.144 106.692 118.457C106.537 119.925 106.552 120.196 106.801 120.471C106.997 120.689 107.045 120.923 106.952 121.208C106.791 121.705 106.783 121.763 106.521 124.42C106.41 125.56 106.203 126.755 106.062 127.075C105.827 127.612 105.768 127.643 105.32 127.473C105.053 127.371 103.664 127.249 102.233 127.202C99.7191 127.119 99.6178 127.129 99.1939 127.525C98.9527 127.75 98.6851 128.116 98.5993 128.34C98.4286 128.783 97.9997 128.876 97.7738 128.52C97.6953 128.396 97.453 127.858 97.2351 127.326C96.8784 126.452 96.8655 126.317 97.1042 125.951C97.6168 125.166 97.7095 124.466 97.4155 123.6C97.1992 122.963 97.1827 122.678 97.34 122.296C97.4508 122.027 97.5816 120.915 97.6308 119.825C97.6798 118.734 97.7684 117.213 97.8275 116.443C97.9008 115.488 97.8677 114.962 97.7231 114.787C97.5692 114.601 97.5638 114.433 97.7034 114.171C97.9408 113.726 97.9548 112.764 97.7256 112.622C97.6322 112.564 97.5608 111.972 97.5665 111.305C97.5746 110.397 97.46 109.804 97.1096 108.941C96.5305 107.513 95.6317 106.085 95.2323 105.958C95.0669 105.905 94.8303 105.633 94.7066 105.352C94.4706 104.817 93.5095 104.19 92.5969 103.976C92.3005 103.906 91.8759 103.678 91.6532 103.47C91.3477 103.184 90.9071 103.06 89.8571 102.966C89.092 102.898 88.2227 102.761 87.9254 102.663C87.327 102.465 86.7827 102.602 86.4171 103.045C86.2486 103.248 85.8746 103.336 85.1661 103.337C84.61 103.338 83.7829 103.452 83.3278 103.591C82.815 103.747 82.0421 103.812 81.2946 103.762C80.1537 103.685 80.0551 103.71 79.4665 104.229C79.1242 104.53 78.7461 104.778 78.6259 104.779C78.506 104.78 78.0187 105.226 77.5433 105.77C77.0644 106.318 76.5267 106.759 76.3372 106.759C75.8267 106.759 74.8615 107.695 74.3848 108.653C73.9997 109.427 73.9703 109.673 74.0425 111.508C74.1371 113.914 74.3943 114.569 75.5805 115.423C76.2661 115.918 76.5964 116.031 77.4123 116.055C77.9598 116.071 78.6906 116.142 79.0364 116.212C79.5362 116.313 79.7918 116.253 80.2839 115.919C81.2197 115.283 81.5944 114.492 81.6933 112.944C81.7682 111.773 81.73 111.532 81.3957 111.079C80.7649 110.223 80.905 109.883 82.0468 109.497C82.5008 109.344 82.7977 109.358 83.3678 109.56C83.7723 109.703 84.2826 109.775 84.5017 109.72C84.7465 109.658 84.9902 109.728 85.1336 109.901C85.4094 110.235 86.236 110.266 87.0425 109.974C87.5179 109.801 87.732 109.817 88.2498 110.064C88.5961 110.229 89.2385 110.363 89.6775 110.363C90.7573 110.363 91.1151 110.779 91.2139 112.15C91.2556 112.729 91.1925 113.78 91.0738 114.487C90.883 115.621 90.806 115.784 90.4119 115.883C90.1668 115.945 89.779 115.91 89.5502 115.806C89.1073 115.603 89.1126 115.601 87.0335 116.79C86.1651 117.286 85.9711 117.334 85.5186 117.162C85.1 117.004 84.9107 117.024 84.5389 117.269C84.2854 117.435 83.7491 117.572 83.347 117.572C82.9448 117.572 82.4369 117.684 82.2181 117.821C81.9994 117.958 81.2642 118.124 80.5848 118.189C79.2187 118.32 78.3975 118.659 78.2401 119.156C78.1618 119.403 77.9964 119.465 77.551 119.413C77.0772 119.358 76.7844 119.489 76.0209 120.099C74.8452 121.038 74.1623 122.022 73.4532 123.799C73.0624 124.778 72.9381 125.321 73.0277 125.657C73.0974 125.918 73.1757 126.823 73.2017 127.667C73.2569 129.461 73.5608 130.314 74.3602 130.92C74.6781 131.161 75.1128 131.554 75.326 131.792C76.7438 133.379 76.8166 133.431 77.6575 133.431C78.2409 133.431 78.6132 133.548 78.9776 133.848C80.5408 135.132 81.2441 135.269 82.9508 134.621C83.5094 134.409 84.4836 134.312 86.4832 134.271L89.2443 134.215L89.8625 133.67C90.2025 133.371 90.8491 133.033 91.2994 132.919C91.7748 132.799 92.3501 132.479 92.6721 132.156C93.408 131.418 94.0948 131.544 94.7955 132.545C95.1003 132.981 95.6573 133.436 96.2422 133.728C97.097 134.154 97.3348 134.192 98.589 134.106C99.3565 134.053 100.124 134.088 100.295 134.184C100.52 134.311 100.777 134.256 101.236 133.985C101.583 133.779 102.229 133.519 102.671 133.408C103.378 133.229 103.519 133.245 103.847 133.543C104.122 133.792 104.51 133.885 105.323 133.894C105.93 133.902 106.688 134.02 107.007 134.158C107.489 134.366 107.717 134.369 108.354 134.176C108.776 134.048 109.242 133.949 109.39 133.955C109.539 133.962 110.993 133.998 112.623 134.036C114.253 134.074 115.792 134.188 116.044 134.29C116.385 134.428 116.658 134.406 117.121 134.206C117.463 134.058 118.272 133.924 118.92 133.908C119.702 133.888 120.26 133.771 120.581 133.56C121.033 133.263 121.095 133.262 121.518 133.54C121.841 133.752 122.205 133.81 122.796 133.744C123.383 133.677 123.848 133.75 124.396 133.994C125.157 134.331 125.183 134.331 126.045 133.991C126.866 133.666 127.05 133.659 128.977 133.884C130.516 134.063 131.22 134.073 131.774 133.926C132.364 133.769 132.758 133.788 133.704 134.022C134.783 134.29 134.962 134.291 135.657 134.038C136.078 133.884 136.866 133.761 137.409 133.763C138.603 133.768 139.053 133.505 139.756 132.393C140.812 130.721 140.241 128.562 138.575 127.924C137.592 127.547 135.585 127.641 134.395 128.119C133.679 128.407 133.571 128.408 132.862 128.136C132.442 127.976 131.959 127.844 131.788 127.844C131.599 127.844 131.327 127.534 131.093 127.049C130.709 126.256 130.708 126.253 131.032 124.391C131.209 123.366 131.343 122.122 131.328 121.627C131.312 121.131 131.28 119.955 131.255 119.014C131.23 118.055 131.095 117 130.948 116.617C130.713 116.003 130.717 115.843 130.994 115.061C131.388 113.949 131.382 113.641 130.947 112.681C130.637 111.994 130.592 111.493 130.588 108.703C130.585 105.888 130.629 105.398 130.958 104.559C131.221 103.89 131.315 103.31 131.273 102.615C131.228 101.87 131.347 101.23 131.751 100.041L132.289 98.4596L131.783 97.5183C131.488 96.9714 131.069 95.6428 130.782 94.3467C130.303 92.1806 130.268 92.1009 129.583 91.5859C129.002 91.1489 128.767 91.0753 128.249 91.168C127.904 91.2298 127.378 91.2705 127.082 91.2584C126.786 91.2464 125.897 91.2217 125.106 91.2035C124.316 91.1854 123.488 91.0667 123.266 90.9396C123.045 90.8126 122.6 90.725 122.278 90.745C121.957 90.765 121.353 90.6053 120.937 90.3903C120.522 90.1752 119.996 89.9996 119.77 90C118.685 90.0018 117.4 91.5327 116.839 93.4942C116.501 94.6736 116.555 95.5612 117.028 96.5596C117.393 97.333 118.677 98.2891 119.351 98.2891C119.675 98.2891 119.866 98.4183 119.978 98.7149C120.153 99.1779 120.707 99.4122 121.079 99.1811C121.212 99.099 121.528 99.1474 121.809 99.2934C122.446 99.6239 122.939 99.6201 123.219 99.2822C123.54 98.8941 123.7 99.0737 124.021 100.181C124.178 100.722 124.471 101.446 124.672 101.789C125.022 102.383 125.025 102.434 124.733 102.881C124.484 103.261 124.465 103.435 124.632 103.801C124.908 104.41 124.88 105.309 124.567 105.858C124.112 106.657 124.223 107.236 125.055 108.405C125.331 108.794 125.336 108.911 125.107 109.555C124.796 110.432 124.769 111.83 125.038 113.089C125.188 113.789 125.185 114.814 125.028 117.083C124.833 119.918 124.84 120.16 125.134 120.486C125.382 120.761 125.406 120.905 125.249 121.158C125.138 121.336 124.955 122.446 124.841 123.626C124.728 124.806 124.565 125.934 124.48 126.132C124.395 126.33 124.276 126.723 124.215 127.004C124.127 127.407 124.038 127.486 123.797 127.374C123.628 127.296 122.641 127.21 121.604 127.184C120.567 127.157 119.291 127.125 118.77 127.112C118.107 127.096 117.682 127.188 117.355 127.421C116.046 128.355 115.944 128.399 115.318 128.297C113.504 128 113.491 127.995 113.244 127.402C112.851 126.459 112.759 125.131 112.999 123.879C113.123 123.235 113.208 122.262 113.187 121.717C113.166 121.172 113.154 120.043 113.159 119.209C113.165 118.222 113.067 117.423 112.877 116.925C112.606 116.213 112.607 116.092 112.892 115.233C113.226 114.222 113.184 113.386 112.742 112.256C112.528 111.71 112.458 110.829 112.452 108.626C112.445 106.102 112.491 105.613 112.799 104.932C113.051 104.374 113.155 103.749 113.158 102.78C113.161 101.746 113.271 101.146 113.611 100.306C114.172 98.9204 114.177 98.2498 113.63 97.3138C113.394 96.9086 112.985 95.6039 112.723 94.4145C112.297 92.4832 112.185 92.1995 111.671 91.7612C110.951 91.1458 110.268 91.0595 109.435 91.4786C109.123 91.6362 108.923 91.6243 108.552 91.4264C108.236 91.2581 107.616 91.1845 106.736 91.2114C106.001 91.2337 105.233 91.1629 105.03 91.0539C104.827 90.945 104.312 90.8629 103.886 90.8715C103.412 90.8811 102.744 90.7154 102.165 90.4449C101.077 89.9369 101.042 89.9331 100.32 90.2496ZM211.049 100.388C210.901 100.449 210.642 100.619 210.474 100.766C210.274 100.94 209.711 101.045 208.846 101.07C207.672 101.102 207.402 101.181 206.457 101.763C204.792 102.788 203.326 104.023 203.326 104.4C203.326 104.75 202.995 104.957 202.432 104.957C201.668 104.957 200.214 107.218 199.731 109.158C199.551 109.883 199.065 111.109 198.652 111.883C197.859 113.365 197.528 115.029 197.894 115.685C198.023 115.916 197.995 116.247 197.797 116.83C197.56 117.527 197.55 117.872 197.729 119.116C198.132 121.911 198.497 122.947 199.953 125.427C200.723 126.738 201.42 128.164 201.528 128.645C201.797 129.85 202.032 130.226 203.028 131.048C204.216 132.029 205.551 132.648 206.788 132.79C207.7 132.894 207.92 133.003 208.605 133.69C209.158 134.245 209.586 134.505 210.082 134.586C211.289 134.784 213.263 134.753 214.081 134.525C214.586 134.384 215.327 134.348 216.149 134.426L217.431 134.546L220.661 132.927C222.438 132.036 224.068 131.254 224.285 131.189C224.891 131.006 225.764 129.892 226.472 128.396C227.03 127.217 227.116 126.858 227.12 125.683C227.125 124.084 226.672 123.138 225.746 122.814C225.028 122.563 223.29 122.561 222.616 122.811C222.12 122.994 220.532 124.712 219.851 125.801C219.676 126.082 219.096 126.737 218.564 127.257C217.649 128.151 217.534 128.208 216.452 128.308C215.822 128.366 215.112 128.488 214.873 128.579C214.232 128.824 213.516 128.781 213.077 128.473C212.865 128.324 212.22 128.151 211.645 128.09C210.746 127.994 210.502 127.881 209.891 127.281C209.324 126.722 209.049 126.583 208.512 126.583C207.654 126.583 206.733 125.744 206.333 124.6C205.982 123.596 205.48 121.401 205.481 120.875C205.482 120.345 206.493 120.015 207.682 120.157C208.173 120.215 208.923 120.169 209.349 120.055C209.958 119.892 210.278 119.899 210.85 120.088C211.526 120.312 211.652 120.296 212.626 119.857C213.739 119.356 213.748 119.356 216.765 119.745C218.633 119.986 219.743 119.956 220.842 119.635C221.712 119.382 221.89 119.383 222.791 119.645C223.62 119.887 223.904 119.898 224.521 119.713C225.624 119.381 226.796 118.261 227.105 117.244C227.245 116.78 227.529 116.025 227.735 115.566C228.17 114.599 228.069 113.579 227.436 112.546C227.172 112.114 227.105 111.822 227.209 111.548C227.301 111.306 227.258 110.894 227.095 110.447C226.952 110.054 226.647 109.201 226.418 108.551C225.629 106.31 225.095 105.532 223.94 104.938C223.572 104.748 223.155 104.37 223.015 104.098C222.7 103.487 220.838 102.423 218.855 101.721C218.055 101.437 217.083 100.988 216.694 100.721C216.074 100.296 215.88 100.252 215.091 100.358C214.025 100.501 214.154 100.5 212.576 100.376C211.885 100.321 211.198 100.327 211.049 100.388ZM169.041 101.286C167.598 101.925 166.702 103.536 167.062 104.844C167.372 105.97 168.735 107.408 169.992 107.935C170.834 108.288 171.492 108.27 172.254 107.872L172.882 107.544L173.934 108.088C175.529 108.913 175.577 109.037 175.577 112.427C175.577 118.028 175.324 126.5 175.138 127.135C175 127.605 174.751 127.888 174.208 128.195C173.523 128.581 173.396 128.596 172.512 128.398C171.319 128.13 170.341 128.382 169.613 129.143C169.158 129.62 169.111 129.792 169.111 130.965C169.111 132.164 169.155 132.315 169.713 133.011C170.526 134.026 171.143 134.272 172.026 133.935C172.692 133.681 172.949 133.677 174.623 133.896C175.104 133.959 175.742 133.914 176.108 133.794C176.667 133.608 176.853 133.632 177.561 133.976C178.282 134.326 178.602 134.363 180.414 134.305C182.048 134.253 182.525 134.177 182.805 133.923C183.131 133.627 183.2 133.625 183.847 133.896C184.451 134.149 184.761 134.159 186.255 133.973C187.198 133.856 188.145 133.727 188.36 133.685C189.302 133.506 190.574 131.852 190.574 130.807C190.574 130.121 190.078 129.174 189.436 128.631C188.922 128.198 188.794 128.171 187.796 128.287C186.351 128.455 184.353 128.41 183.531 128.191C183.159 128.092 182.453 127.634 181.933 127.154L181.001 126.294L181.235 123.13C181.364 121.389 181.425 119.162 181.371 118.181C181.255 116.064 181.483 115.471 182.925 114.147C183.523 113.598 184 112.921 184.404 112.047C184.89 110.998 185.177 110.631 185.946 110.075C186.466 109.7 187.234 109.084 187.651 108.707C188.849 107.624 189.439 107.901 188.887 109.286C188.293 110.774 188.659 112.016 190.166 113.633C190.71 114.216 191.23 114.579 191.721 114.72C192.128 114.836 192.581 115.029 192.729 115.149C193.293 115.605 193.737 115.603 194.414 115.142C194.781 114.892 195.116 114.688 195.16 114.688C195.204 114.688 195.715 114.326 196.297 113.882C197.904 112.655 198.261 111.533 197.667 109.569C197.519 109.082 197.399 108.064 197.399 107.306C197.399 105.959 197.381 105.902 196.577 104.767C196.125 104.128 195.607 103.322 195.426 102.975C195.244 102.628 194.838 102.082 194.523 101.762C193.996 101.225 193.863 101.181 192.846 101.196C192.238 101.205 191.43 101.153 191.05 101.081C189.976 100.876 188.189 101.431 187.374 102.222C187.01 102.576 186.638 102.844 186.546 102.819C186.455 102.794 186.08 102.824 185.713 102.886C185.217 102.971 184.767 103.278 183.959 104.082C182.486 105.552 182.179 105.505 181.75 103.749C181.368 102.185 181.047 101.656 180.254 101.278C179.546 100.941 178 100.904 177.173 101.204C176.703 101.375 176.53 101.368 176.291 101.169C176.066 100.982 175.255 100.919 172.951 100.912C170.224 100.903 169.818 100.942 169.041 101.286ZM153.092 101.521C151.903 101.829 149.641 104.188 149.23 105.549C149.059 106.113 149.074 106.338 149.318 106.85C149.913 108.103 152.075 109.121 153.355 108.753C153.772 108.633 154.029 108.677 154.466 108.944C154.778 109.135 155.439 109.378 155.933 109.484C156.619 109.632 156.88 109.785 157.038 110.134C157.226 110.547 157.19 110.639 156.667 111.076C155.974 111.657 155.918 112.273 156.448 113.474C156.792 114.256 156.795 114.338 156.516 115.576C156.238 116.813 156.241 116.9 156.585 117.73L156.943 118.595L156.546 119.841C155.953 121.704 155.497 122.484 153.516 125.031C151.082 128.16 151.257 128.024 149.655 128.024C148.062 128.024 147.511 127.746 146.354 126.358L145.582 125.43V122.084C145.582 118.96 145.556 118.702 145.201 118.212C144.84 117.714 144.833 117.632 145.069 116.617C145.206 116.029 145.473 115.329 145.662 115.062C146.307 114.154 146.303 113.706 145.644 112.784C145.117 112.047 145.043 111.807 145.046 110.838C145.048 110.099 145.182 109.423 145.45 108.798C145.885 107.784 145.972 106.393 145.669 105.297C145.436 104.457 143.839 102.928 142.577 102.339C141.498 101.835 139.849 101.735 139.297 102.14C139.008 102.352 138.858 102.34 138.23 102.054C137.238 101.602 136.484 101.63 135.445 102.158C134.095 102.844 133.871 103.243 133.723 105.231C133.576 107.2 133.695 107.629 134.668 108.635C135.817 109.821 136.853 110.173 138.112 109.806C138.538 109.682 138.839 111.149 139.027 114.274C139.144 116.204 139.143 117.353 139.025 117.665C138.927 117.924 138.846 119.375 138.846 120.888C138.846 123.394 138.892 123.792 139.357 125.337C140.12 127.875 141.451 130.35 143.098 132.298C144.093 133.474 144.685 133.901 145.704 134.174C146.37 134.353 146.599 134.344 147.048 134.119C147.546 133.869 147.622 133.876 148.022 134.201C148.392 134.502 148.613 134.535 149.533 134.426C150.95 134.259 151.178 134.259 152.161 134.419C152.988 134.554 153.007 134.545 155.275 133.002C156.53 132.147 157.582 131.448 157.613 131.448C157.645 131.448 157.755 131.691 157.858 131.988C157.961 132.286 158.232 132.606 158.459 132.7C158.687 132.795 159.457 133.121 160.171 133.426C160.992 133.777 161.623 133.941 161.89 133.874C162.128 133.814 162.734 133.929 163.286 134.14C164.652 134.661 165.012 134.62 165.702 133.864C166.304 133.204 167.075 132.71 167.502 132.71C167.631 132.71 167.905 132.496 168.11 132.235C168.558 131.663 168.626 129.908 168.23 129.14C167.875 128.45 166.746 127.873 165.503 127.744C163.48 127.535 163.005 127.151 163.275 125.94C163.53 124.8 163.447 119.924 163.16 119.217C162.778 118.272 162.855 116.896 163.351 115.827C164.071 114.276 164.435 107.734 163.9 105.965C163.753 105.478 163.632 104.762 163.632 104.374C163.632 102.98 162.332 102.257 159.644 102.156C158.743 102.123 158.117 102.005 157.852 101.819C157.344 101.462 156.656 101.451 156.277 101.795C156.024 102.026 155.835 102.019 154.736 101.739C154.048 101.563 153.308 101.465 153.092 101.521ZM215.039 107.57C215.403 107.818 215.94 108.021 216.233 108.021C216.539 108.021 217.328 108.353 218.084 108.8C219.199 109.459 219.437 109.688 219.637 110.287C220.128 111.764 219.293 113.312 217.785 113.721C214.427 114.631 214.6 114.615 213.126 114.151C211.965 113.786 211.682 113.756 211.086 113.935C210.516 114.107 210.261 114.091 209.645 113.849C209.002 113.595 208.719 113.583 207.615 113.766C206.514 113.949 206.273 113.939 205.907 113.699C205.362 113.34 205.347 112.559 205.865 111.484C206.333 110.514 207.111 110.005 208.127 110.004C208.827 110.003 208.914 109.949 209.239 109.31C209.674 108.455 210.124 108.151 211.802 107.577C213.486 107.002 214.204 107 215.039 107.57ZM91.8833 121.558C91.951 121.868 91.9501 122.723 91.8813 123.46L91.7563 124.799L90.8597 125.285C89.3589 126.099 88.4068 126.911 87.7014 127.979L87.029 128.997L85.5921 129.006C84.6204 129.012 83.9675 129.112 83.5755 129.315C82.9809 129.622 82.4559 129.582 81.8203 129.179C81.6227 129.054 81.1584 128.896 80.7884 128.829C80.2821 128.736 79.9791 128.521 79.5617 127.959C79.0559 127.279 79.0168 127.129 79.115 126.252C79.24 125.135 79.8847 123.883 80.3357 123.881C80.6419 123.879 82.6497 122.967 83.0517 122.647C83.384 122.382 84.4044 122.22 86.1309 122.16C87.5218 122.111 90.7223 121.405 91.0513 121.075C91.3281 120.797 91.7732 121.056 91.8833 121.558Z" fill="white"/>
</svg>
