<svg width="8" height="11" viewBox="0 0 8 11" fill="none" xmlns="http://www.w3.org/2000/svg">
<path d="M7.53906 5.20443C7.62153 5.28689 7.66276 5.38455 7.66276 5.4974C7.66276 5.61024 7.62153 5.7079 7.53906 5.79036L2.70833 10.6211C2.62587 10.7036 2.52821 10.7448 2.41536 10.7448C2.30252 10.7448 2.20486 10.7036 2.1224 10.6211L1.04167 9.54037C0.959201 9.4579 0.917969 9.36024 0.917969 9.2474C0.917969 9.13455 0.959201 9.03689 1.04167 8.95443L4.4987 5.4974L1.04167 2.04036C0.959201 1.9579 0.917969 1.86024 0.917969 1.7474C0.917969 1.63455 0.959201 1.53689 1.04167 1.45443L2.1224 0.373698C2.20486 0.291233 2.30252 0.25 2.41536 0.25C2.52821 0.25 2.62587 0.291233 2.70833 0.373698L7.53906 5.20443Z" fill="red"/>
</svg>
