<svg width="302" height="226" viewBox="0 0 302 226" fill="none" xmlns="http://www.w3.org/2000/svg">
<path fill-rule="evenodd" clip-rule="evenodd" d="M88.0123 87.383L88.0246 87.766L89.9294 87.7774L91.8343 87.7888V112.979V138.168H89.9188H88.0033V138.562V138.956L98.6343 138.945L109.265 138.934V132.04V125.146L108.961 125.134L108.657 125.121L108.63 125.725C108.437 130.036 107.758 133.172 106.631 134.948C105.958 136.011 104.643 137.026 103.323 137.502C102.256 137.888 101.098 138.047 98.9322 138.105L97.8787 138.133V125.414V112.694L98.2086 112.695C98.9051 112.697 99.739 112.822 100.305 113.008C100.676 113.13 101.261 113.441 101.499 113.645C102.001 114.072 102.556 114.823 102.913 115.561C103.537 116.846 103.799 118.309 103.865 120.872L103.894 122.017H104.228H104.562V112.276V102.535L104.232 102.548L103.902 102.561L103.893 103.13C103.878 104.05 103.796 105.539 103.729 106.089C103.49 108.078 102.918 109.437 101.822 110.624C101.11 111.396 100.063 111.793 98.5917 111.848L97.8787 111.875V99.8313V87.7879H98.7877C101.719 87.7879 103.233 88.2245 104.82 89.5279C105.631 90.1941 106.105 90.8021 106.537 91.7304C107.372 93.5233 107.967 96.6807 108.088 99.9571L108.116 100.722H108.435H108.754L108.765 93.8611L108.776 87H98.388H88L88.0123 87.383ZM123.546 87.3502V87.7003H125.462H127.377V112.956V138.212H125.462H123.546V138.606V139H134.188H144.829V132.106V125.212H144.514H144.199L144.175 125.617C144.092 127.019 144.052 127.579 143.996 128.123C143.684 131.171 143.034 133.633 142.188 134.973C141.52 136.033 140.335 136.965 138.985 137.495C137.878 137.929 136.202 138.168 134.262 138.168L133.422 138.168V112.979V87.7888L135.156 87.7774L136.891 87.766L136.903 87.383L136.915 87H130.231H123.546V87.3502ZM157.727 87.3502V87.7003H159.643H161.558V112.956V138.212H159.643H157.727V138.606V139H168.347H178.968V132.106V125.212H178.648H178.329V125.581C178.329 126.393 178.18 128.152 178.006 129.392C177.599 132.296 176.913 134.345 175.952 135.53C175.506 136.081 174.693 136.727 173.926 137.143C172.652 137.832 170.848 138.168 168.422 138.168H167.56V112.978V87.7879H169.305H171.05V87.3939V87H164.389H157.727V87.3502ZM192.726 87.383L192.738 87.766L194.664 87.7774L196.59 87.7888V112.978V138.167L194.664 138.179L192.738 138.19V138.562V138.934L203.369 138.945L214 138.956L213.989 132.051L213.978 125.146H213.68H213.383L213.353 125.869C213.25 128.331 212.916 130.73 212.447 132.369C211.814 134.581 211.029 135.749 209.483 136.781C208.497 137.439 207.498 137.774 205.924 137.973C205.448 138.034 203.691 138.121 202.901 138.124L202.592 138.125V125.402V112.68L203.2 112.708C203.9 112.741 204.469 112.832 204.954 112.987C205.739 113.239 206.223 113.558 206.729 114.155C208.043 115.703 208.59 117.765 208.593 121.174L208.594 122.017H208.956H209.318L209.307 112.289L209.296 102.561H208.956H208.615L208.588 103.852C208.527 106.743 208.162 108.346 207.246 109.748C206.881 110.305 206.248 110.968 205.863 111.194C205.156 111.61 204.34 111.818 203.284 111.851L202.592 111.873V99.8246V87.7758L203.858 87.8015C205.99 87.8448 207.061 88.0477 208.189 88.6216C208.998 89.033 210.009 89.8385 210.527 90.4847C211.803 92.077 212.601 95.4282 212.832 100.164L212.86 100.744H213.174H213.489V93.8721V87H203.101H192.713L192.726 87.383Z" fill="white"/>
</svg>
