<svg width="261" height="29" viewBox="0 0 261 29" fill="none" xmlns="http://www.w3.org/2000/svg">
<path d="M12.4 28.8C9.86667 28.8 7.69333 28.3867 5.88 27.56C4.09333 26.7333 2.69333 25.52 1.68 23.92C0.693333 22.32 0.146667 20.3333 0.0399999 17.96C0.0133333 16.8667 0 15.6933 0 14.44C0 13.1867 0.0133333 11.9867 0.0399999 10.84C0.146667 8.52 0.706667 6.56 1.72 4.96C2.73333 3.33333 4.14667 2.10667 5.96 1.28C7.77333 0.426667 9.92 0 12.4 0C14.16 0 15.7867 0.226667 17.28 0.680001C18.7733 1.10667 20.08 1.74667 21.2 2.6C22.32 3.42667 23.1867 4.44 23.8 5.64C24.44 6.81333 24.7733 8.14667 24.8 9.64C24.8267 9.88 24.7467 10.08 24.56 10.24C24.4 10.4 24.2 10.48 23.96 10.48H18.56C18.2133 10.48 17.9467 10.4133 17.76 10.28C17.5733 10.12 17.4133 9.84 17.28 9.44C16.9067 8.02667 16.2933 7.06667 15.44 6.56C14.6133 6.02667 13.5867 5.76 12.36 5.76C10.8933 5.76 9.73333 6.17333 8.88 7C8.02667 7.8 7.56 9.14667 7.48 11.04C7.4 13.2267 7.4 15.4667 7.48 17.76C7.56 19.6533 8.02667 21.0133 8.88 21.84C9.73333 22.64 10.8933 23.04 12.36 23.04C13.5867 23.04 14.6267 22.7733 15.48 22.24C16.3333 21.7067 16.9333 20.7467 17.28 19.36C17.3867 18.96 17.5333 18.6933 17.72 18.56C17.9333 18.4 18.2133 18.32 18.56 18.32H23.96C24.2 18.32 24.4 18.4 24.56 18.56C24.7467 18.72 24.8267 18.92 24.8 19.16C24.7733 20.6533 24.44 22 23.8 23.2C23.1867 24.3733 22.32 25.3867 21.2 26.24C20.08 27.0667 18.7733 27.7067 17.28 28.16C15.7867 28.5867 14.16 28.8 12.4 28.8Z" fill="#222222"/>
<path d="M30.0059 28.4C29.7126 28.4 29.4726 28.3067 29.2859 28.12C29.0993 27.9333 29.0059 27.6933 29.0059 27.4V1.4C29.0059 1.10667 29.0993 0.866667 29.2859 0.680001C29.4726 0.493333 29.7126 0.4 30.0059 0.4H40.8859C44.3259 0.4 47.0326 1.2 49.0059 2.8C51.0059 4.37333 52.0059 6.61333 52.0059 9.52C52.0059 11.4133 51.5393 13.0133 50.6059 14.32C49.6993 15.6267 48.4993 16.6133 47.0059 17.28L52.5259 27.12C52.6059 27.28 52.6459 27.4267 52.6459 27.56C52.6459 27.7733 52.5526 27.9733 52.3659 28.16C52.2059 28.32 52.0059 28.4 51.7659 28.4H46.4859C45.9793 28.4 45.6059 28.28 45.3659 28.04C45.1259 27.7733 44.9526 27.5333 44.8459 27.32L40.2859 18.52H36.1659V27.4C36.1659 27.6933 36.0726 27.9333 35.8859 28.12C35.6993 28.3067 35.4593 28.4 35.1659 28.4H30.0059ZM36.1659 12.88H40.8059C42.0593 12.88 42.9926 12.5733 43.6059 11.96C44.2459 11.3467 44.5659 10.5067 44.5659 9.44C44.5659 8.4 44.2593 7.56 43.6459 6.92C43.0593 6.28 42.1126 5.96 40.8059 5.96H36.1659V12.88Z" fill="#222222"/>
<path d="M57.6622 28.4C57.3689 28.4 57.1289 28.3067 56.9422 28.12C56.7555 27.9333 56.6622 27.6933 56.6622 27.4V1.4C56.6622 1.10667 56.7555 0.866667 56.9422 0.680001C57.1289 0.493333 57.3689 0.4 57.6622 0.4H76.3422C76.6355 0.4 76.8755 0.493333 77.0622 0.680001C77.2489 0.866667 77.3422 1.10667 77.3422 1.4V5.16C77.3422 5.45333 77.2489 5.69333 77.0622 5.88C76.8755 6.06667 76.6355 6.16 76.3422 6.16H63.5822V11.56H75.4622C75.7555 11.56 75.9955 11.6667 76.1822 11.88C76.3689 12.0667 76.4622 12.3067 76.4622 12.6V16.08C76.4622 16.3467 76.3689 16.5867 76.1822 16.8C75.9955 16.9867 75.7555 17.08 75.4622 17.08H63.5822V22.64H76.6622C76.9555 22.64 77.1955 22.7333 77.3822 22.92C77.5689 23.1067 77.6622 23.3467 77.6622 23.64V27.4C77.6622 27.6933 77.5689 27.9333 77.3822 28.12C77.1955 28.3067 76.9555 28.4 76.6622 28.4H57.6622Z" fill="#222222"/>
<path d="M80.6091 28.4C80.3957 28.4 80.1957 28.32 80.0091 28.16C79.8491 27.9733 79.7691 27.7733 79.7691 27.56C79.7691 27.4267 79.7824 27.3067 79.8091 27.2L89.2091 1.52C89.2891 1.22667 89.4491 0.973334 89.6891 0.76C89.9557 0.52 90.3157 0.4 90.7691 0.4H96.6891C97.1424 0.4 97.4891 0.52 97.7291 0.76C97.9957 0.973334 98.1691 1.22667 98.2491 1.52L107.609 27.2C107.662 27.3067 107.689 27.4267 107.689 27.56C107.689 27.7733 107.596 27.9733 107.409 28.16C107.249 28.32 107.049 28.4 106.809 28.4H101.889C101.489 28.4 101.182 28.3067 100.969 28.12C100.782 27.9067 100.662 27.72 100.609 27.56L99.0491 23.48H88.3691L86.8491 27.56C86.7957 27.72 86.6757 27.9067 86.4891 28.12C86.3024 28.3067 85.9824 28.4 85.5291 28.4H80.6091ZM90.0091 17.72H97.4491L93.6891 7.16L90.0091 17.72Z" fill="#222222"/>
<path d="M111.842 28.4C111.575 28.4 111.335 28.3067 111.122 28.12C110.935 27.9333 110.842 27.6933 110.842 27.4V1.4C110.842 1.10667 110.935 0.866667 111.122 0.680001C111.335 0.493333 111.575 0.4 111.842 0.4H116.162C116.589 0.4 116.909 0.52 117.122 0.76C117.362 0.973334 117.509 1.14667 117.562 1.28L124.602 13.92L131.642 1.28C131.722 1.14667 131.855 0.973334 132.042 0.76C132.255 0.52 132.589 0.4 133.042 0.4H137.322C137.615 0.4 137.855 0.493333 138.042 0.680001C138.255 0.866667 138.362 1.10667 138.362 1.4V27.4C138.362 27.6933 138.255 27.9333 138.042 28.12C137.855 28.3067 137.615 28.4 137.322 28.4H132.562C132.269 28.4 132.015 28.3067 131.802 28.12C131.615 27.9333 131.522 27.6933 131.522 27.4V12.4L127.002 20.76C126.895 21 126.735 21.2133 126.522 21.4C126.309 21.5867 126.015 21.68 125.642 21.68H123.562C123.189 21.68 122.895 21.5867 122.682 21.4C122.469 21.2133 122.295 21 122.162 20.76L117.642 12.4V27.4C117.642 27.6933 117.549 27.9333 117.362 28.12C117.175 28.3067 116.935 28.4 116.642 28.4H111.842Z" fill="#222222"/>
<path d="M162.883 28.8C160.217 28.8 158.003 28.4267 156.243 27.68C154.483 26.9067 153.15 25.9067 152.243 24.68C151.337 23.4533 150.857 22.1467 150.803 20.76C150.803 20.5467 150.883 20.36 151.043 20.2C151.23 20.0133 151.443 19.92 151.683 19.92H156.723C157.097 19.92 157.377 19.9867 157.563 20.12C157.777 20.2533 157.963 20.4267 158.123 20.64C158.337 21.04 158.63 21.4267 159.003 21.8C159.403 22.1733 159.91 22.48 160.523 22.72C161.163 22.9333 161.95 23.04 162.883 23.04C164.43 23.04 165.59 22.8 166.363 22.32C167.163 21.84 167.563 21.1867 167.563 20.36C167.563 19.7733 167.35 19.2933 166.923 18.92C166.497 18.52 165.803 18.1733 164.843 17.88C163.91 17.56 162.657 17.24 161.083 16.92C159.057 16.4933 157.323 15.9467 155.883 15.28C154.47 14.5867 153.39 13.6933 152.643 12.6C151.897 11.48 151.523 10.0933 151.523 8.44C151.523 6.81333 151.977 5.36 152.883 4.08C153.817 2.8 155.11 1.8 156.763 1.08C158.417 0.36 160.377 0 162.643 0C164.483 0 166.097 0.24 167.483 0.72C168.897 1.2 170.083 1.84 171.043 2.64C172.003 3.44 172.723 4.29333 173.203 5.2C173.71 6.08 173.977 6.94667 174.003 7.8C174.003 8.01333 173.923 8.21333 173.763 8.4C173.603 8.56 173.403 8.64 173.163 8.64H167.883C167.59 8.64 167.337 8.58667 167.123 8.48C166.91 8.37333 166.723 8.2 166.563 7.96C166.403 7.37333 165.977 6.86667 165.283 6.44C164.617 5.98667 163.737 5.76 162.643 5.76C161.47 5.76 160.55 5.97333 159.883 6.4C159.243 6.8 158.923 7.42667 158.923 8.28C158.923 8.81333 159.097 9.28 159.443 9.68C159.817 10.08 160.417 10.4267 161.243 10.72C162.097 11.0133 163.257 11.32 164.723 11.64C167.15 12.0933 169.11 12.6667 170.603 13.36C172.097 14.0267 173.19 14.9067 173.883 16C174.577 17.0667 174.923 18.4133 174.923 20.04C174.923 21.8533 174.403 23.4267 173.363 24.76C172.35 26.0667 170.937 27.0667 169.123 27.76C167.31 28.4533 165.23 28.8 162.883 28.8Z" fill="#222222"/>
<path d="M179.928 28.4C179.634 28.4 179.394 28.3067 179.208 28.12C179.021 27.9333 178.928 27.6933 178.928 27.4V1.4C178.928 1.10667 179.021 0.866667 179.208 0.680001C179.394 0.493333 179.634 0.4 179.928 0.4H185.088C185.381 0.4 185.621 0.493333 185.808 0.680001C185.994 0.866667 186.088 1.10667 186.088 1.4V11.04H195.968V1.4C195.968 1.10667 196.061 0.866667 196.248 0.680001C196.434 0.493333 196.674 0.4 196.968 0.4H202.128C202.421 0.4 202.661 0.493333 202.848 0.680001C203.034 0.866667 203.128 1.10667 203.128 1.4V27.4C203.128 27.6933 203.034 27.9333 202.848 28.12C202.661 28.3067 202.421 28.4 202.128 28.4H196.968C196.674 28.4 196.434 28.3067 196.248 28.12C196.061 27.9333 195.968 27.6933 195.968 27.4V17.44H186.088V27.4C186.088 27.6933 185.994 27.9333 185.808 28.12C185.621 28.3067 185.381 28.4 185.088 28.4H179.928Z" fill="#222222"/>
<path d="M220.173 28.8C217.719 28.8 215.586 28.4 213.773 27.6C211.959 26.8 210.546 25.6 209.533 24C208.519 22.3733 207.959 20.3467 207.852 17.92C207.826 16.7733 207.812 15.6267 207.812 14.48C207.812 13.3333 207.826 12.1733 207.852 11C207.959 8.6 208.519 6.58667 209.533 4.96C210.572 3.30667 211.999 2.06667 213.812 1.24C215.626 0.413334 217.746 0 220.173 0C222.572 0 224.679 0.413334 226.492 1.24C228.332 2.06667 229.772 3.30667 230.812 4.96C231.852 6.58667 232.413 8.6 232.493 11C232.546 12.1733 232.572 13.3333 232.572 14.48C232.572 15.6267 232.546 16.7733 232.493 17.92C232.386 20.3467 231.826 22.3733 230.812 24C229.799 25.6 228.386 26.8 226.572 27.6C224.759 28.4 222.626 28.8 220.173 28.8ZM220.173 23.04C221.586 23.04 222.732 22.6133 223.613 21.76C224.519 20.9067 224.999 19.5467 225.053 17.68C225.106 16.5067 225.133 15.4 225.133 14.36C225.133 13.32 225.106 12.24 225.053 11.12C224.999 9.86667 224.759 8.85333 224.333 8.08C223.933 7.28 223.372 6.69333 222.652 6.32C221.932 5.94667 221.106 5.76 220.173 5.76C219.266 5.76 218.452 5.94667 217.732 6.32C217.012 6.69333 216.439 7.28 216.012 8.08C215.586 8.85333 215.346 9.86667 215.292 11.12C215.266 12.24 215.253 13.32 215.253 14.36C215.253 15.4 215.266 16.5067 215.292 17.68C215.372 19.5467 215.852 20.9067 216.732 21.76C217.613 22.6133 218.759 23.04 220.173 23.04Z" fill="#222222"/>
<path d="M238.209 28.4C237.916 28.4 237.676 28.3067 237.489 28.12C237.302 27.9333 237.209 27.6933 237.209 27.4V1.4C237.209 1.10667 237.302 0.866667 237.489 0.680001C237.676 0.493333 237.916 0.4 238.209 0.4H249.409C251.622 0.4 253.542 0.746667 255.169 1.44C256.822 2.10667 258.102 3.12 259.009 4.48C259.942 5.84 260.409 7.56 260.409 9.64C260.409 11.6933 259.942 13.3867 259.009 14.72C258.102 16.0533 256.822 17.04 255.169 17.68C253.542 18.32 251.622 18.64 249.409 18.64H244.649V27.4C244.649 27.6933 244.542 27.9333 244.329 28.12C244.142 28.3067 243.902 28.4 243.609 28.4H238.209ZM244.529 13.12H249.209C250.356 13.12 251.262 12.8267 251.929 12.24C252.622 11.6533 252.969 10.76 252.969 9.56C252.969 8.54667 252.676 7.69333 252.089 7C251.502 6.30667 250.542 5.96 249.209 5.96H244.529V13.12Z" fill="#222222"/>
</svg>
