<svg width="24" height="24" viewBox="0 0 24 24" fill="none" xmlns="http://www.w3.org/2000/svg">
<path d="M12 5.44133C9.864 5.44133 9.61067 5.44933 8.76733 5.488C7.85667 5.52933 7.012 5.712 6.362 6.362C5.712 7.012 5.52933 7.85667 5.488 8.76733C5.44933 9.61067 5.44133 9.864 5.44133 12C5.44133 14.136 5.44933 14.3893 5.488 15.2327C5.52933 16.1433 5.712 16.988 6.362 17.638C7.012 18.288 7.85667 18.4707 8.76733 18.512C9.61067 18.5507 9.864 18.5587 12 18.5587C14.136 18.5587 14.3893 18.5507 15.2327 18.512C16.1433 18.4707 16.988 18.288 17.638 17.638C18.288 16.988 18.4707 16.1433 18.512 15.2327C18.5507 14.3893 18.5587 14.136 18.5587 12C18.5587 9.864 18.5507 9.61067 18.512 8.76733C18.4707 7.85667 18.288 7.012 17.638 6.362C16.988 5.712 16.1433 5.52933 15.2327 5.488C14.3893 5.44933 14.136 5.44133 12 5.44133ZM12 4C14.1727 4 14.4453 4.00933 15.2987 4.048C16.5987 4.10733 17.7407 4.426 18.6573 5.34267C19.574 6.25933 19.8927 7.40133 19.952 8.70133C19.9907 9.55467 20 9.82733 20 12C20 14.1727 19.9907 14.4453 19.952 15.2987C19.8927 16.5987 19.574 17.7407 18.6573 18.6573C17.7407 19.574 16.5987 19.8927 15.2987 19.952C14.4453 19.9907 14.1727 20 12 20C9.82733 20 9.55467 19.9907 8.70133 19.952C7.40133 19.8927 6.25933 19.574 5.34267 18.6573C4.426 17.7407 4.10733 16.5987 4.048 15.2987C4.00933 14.4453 4 14.1727 4 12C4 9.82733 4.00933 9.55467 4.048 8.70133C4.10733 7.40133 4.426 6.25933 5.34267 5.34267C6.25933 4.426 7.40133 4.10733 8.70133 4.048C9.55467 4.00933 9.82733 4 12 4ZM12 7.892C14.2687 7.892 16.108 9.73133 16.108 12C16.108 14.2687 14.2687 16.108 12 16.108C9.73133 16.108 7.892 14.2687 7.892 12C7.892 9.73133 9.73133 7.892 12 7.892ZM12 14.6667C13.4727 14.6667 14.6667 13.4727 14.6667 12C14.6667 10.5273 13.4727 9.33333 12 9.33333C10.5273 9.33333 9.33333 10.5273 9.33333 12C9.33333 13.4727 10.5273 14.6667 12 14.6667ZM16.2707 8.68933C15.7405 8.68933 15.3107 8.25953 15.3107 7.72933C15.3107 7.19914 15.7405 6.76933 16.2707 6.76933C16.8009 6.76933 17.2307 7.19914 17.2307 7.72933C17.2307 8.25953 16.8009 8.68933 16.2707 8.68933Z" fill="#7373D7"/>
</svg>
