<svg width="24" height="24" viewBox="0 0 24 24" fill="none" xmlns="http://www.w3.org/2000/svg">
<path fill-rule="evenodd" clip-rule="evenodd" d="M21.4062 8.39589C20.791 8.67507 20.1757 8.76813 19.458 8.86119C20.1757 8.48895 20.6884 7.9306 20.8935 7.18612C20.2783 7.55836 19.5605 7.74448 18.7402 7.9306C18.125 7.37224 17.2021 7 16.2793 7C14.5361 7 12.998 8.39589 12.998 10.071C12.998 10.3501 12.998 10.5363 13.1006 10.7224C10.332 10.6293 7.76855 9.41955 6.12793 7.55836C5.82031 8.02366 5.71777 8.48895 5.71777 9.14037C5.71777 10.164 6.333 11.0946 7.25585 11.653C6.74316 11.653 6.23047 11.4669 5.71777 11.2807C5.71777 12.7697 6.8457 13.9795 8.38378 14.2587C8.07616 14.3517 7.76855 14.3517 7.46093 14.3517C7.25585 14.3517 7.05078 14.3517 6.8457 14.2587C7.25585 15.4684 8.48632 16.399 10.0244 16.399C8.89647 17.2366 7.46093 17.7019 5.82031 17.7019C5.51269 17.7019 5.30762 17.7019 5 17.7019C6.53808 18.5394 8.28124 19.0978 10.1269 19.0978C16.2793 19.0978 19.663 14.4448 19.663 10.4432C19.663 10.3501 19.663 10.164 19.663 10.071C20.3808 9.60567 20.996 9.04731 21.4062 8.39589Z" fill="#7373D7"/>
</svg>
