<svg width="60" height="60" viewBox="0 0 60 60" fill="none" xmlns="http://www.w3.org/2000/svg">
<path d="M6 16.5L30.5 3C29.1667 4 25.2 10.8 24 26C22.8 41.2 39.5 47 47.5 48.5L30.5 58.5L6 44V16.5Z" fill="#7373D7"/>
<path d="M34.9729 32.3009C34.9729 32.9871 34.8476 33.5481 34.5971 33.9838C34.3466 34.4195 34.0143 34.7572 33.6004 34.9968C33.1974 35.2364 32.7345 35.3998 32.2116 35.487C31.6888 35.5741 31.1605 35.6177 30.6268 35.6177H27.1302V23.8047H30.251C30.8718 23.8047 31.4383 23.8483 31.9502 23.9354C32.473 24.0225 32.9251 24.1805 33.3063 24.4092C33.6876 24.638 33.9817 24.9484 34.1886 25.3405C34.4065 25.7218 34.5154 26.2119 34.5154 26.811C34.5154 27.5735 34.3357 28.1563 33.9762 28.5593C33.6277 28.9514 33.1266 29.251 32.473 29.4579C32.8434 29.5342 33.1811 29.6377 33.4861 29.7684C33.8019 29.8991 34.0688 30.0788 34.2867 30.3075C34.5045 30.5254 34.6733 30.7977 34.7932 31.1245C34.913 31.4513 34.9729 31.8434 34.9729 32.3009ZM32.228 27.1215C32.228 26.7838 32.1626 26.5115 32.0319 26.3045C31.9121 26.0976 31.7541 25.9396 31.5581 25.8307C31.362 25.7218 31.1387 25.651 30.8882 25.6183C30.6485 25.5856 30.4089 25.5693 30.1693 25.5693H29.336V28.7227H30.0712C30.3327 28.7227 30.5941 28.7063 30.8555 28.6737C31.1169 28.641 31.3457 28.5702 31.5417 28.4613C31.7487 28.3523 31.9121 28.1944 32.0319 27.9874C32.1626 27.7696 32.228 27.4809 32.228 27.1215ZM32.6201 32.1375C32.6201 31.7671 32.5602 31.4676 32.4404 31.2389C32.3206 31.0101 32.1572 30.8358 31.9502 30.716C31.7541 30.5962 31.5254 30.5145 31.264 30.4709C31.0026 30.4274 30.7248 30.4056 30.4307 30.4056H29.336V33.8531H30.2836C30.5668 33.8531 30.8446 33.8367 31.1169 33.8041C31.4001 33.7605 31.6507 33.6788 31.8685 33.559C32.0973 33.4392 32.277 33.2703 32.4077 33.0525C32.5493 32.8237 32.6201 32.5187 32.6201 32.1375Z" fill="#42210B"/>
<path d="M36.0001 37.8417C36.4214 37.964 36.8064 38 37.2349 38C38.3754 38 39.0001 37.3741 39.0001 36.5036C39.0001 35.9065 38.6804 35.5036 38.1357 35.295C38.5788 35.0576 38.8039 34.6835 38.8039 34.2734C38.8039 33.4317 38.1502 33 37.2567 33C36.8281 33 36.4214 33.0647 36.0146 33.2014L36.1018 33.8777C36.4504 33.7554 36.7846 33.6906 37.1405 33.6906C37.6853 33.6906 37.9177 33.9281 37.9177 34.3165C37.9177 34.6978 37.5836 35.0144 36.8863 35.0144H36.6393V35.6763H37.0461C37.7143 35.6763 38.1139 35.9784 38.1139 36.4604C38.1139 36.964 37.7797 37.3094 37.1042 37.3094C36.7628 37.3094 36.4214 37.2518 36.08 37.1655L36.0001 37.8417Z" fill="#222222"/>
<path d="M30.5004 2.0001C30.3855 1.99811 30.2691 2.02627 30.1692 2.08291L5.65723 15.9951C5.55819 16.0513 5.46604 16.1452 5.4088 16.2435C5.35183 16.3418 5.32599 16.4611 5.32599 16.5748V44.399C5.32599 44.5127 5.35183 44.632 5.4088 44.7303C5.46577 44.8286 5.55819 44.9018 5.65723 44.9581L30.1692 58.8703C30.2662 58.9253 30.368 58.9737 30.4797 58.9737C30.5913 58.9737 30.7139 58.9254 30.8109 58.8703L55.3228 44.9581C55.4219 44.9018 55.514 44.8286 55.5713 44.7303C55.6289 44.632 55.6748 44.5127 55.6748 44.399V16.5748C55.6748 16.4611 55.6284 16.3418 55.5713 16.2435C55.5143 16.1452 55.4219 16.0513 55.3228 15.9951L30.8109 2.08291C30.7168 2.02958 30.6086 2.00185 30.5004 2.0001ZM30.4799 3.40788L30.8111 3.5942L53.9981 16.7611L54.3501 16.9474V17.3408V43.6123V44.0057L53.9981 44.192L30.8111 57.3589L30.4799 57.5453L30.1694 57.3589L6.9824 44.192L6.65116 44.0057V43.6123V17.3408V16.9474L6.9824 16.7611L30.1694 3.5942L30.4799 3.40788Z" fill="#222222" stroke="#222222"/>
</svg>
