<svg width="60" height="60" viewBox="0 0 60 60" fill="none" xmlns="http://www.w3.org/2000/svg">
<path d="M39.629 55.1304C39.5339 55.1488 39.4441 55.1913 39.3671 55.2544L39.2689 55.3607C36.6094 57.059 33.5834 57.9693 30.4955 58C26.9138 57.9798 23.4249 56.7648 20.5045 54.5205C17.5842 52.2762 15.3744 49.1119 14.1765 45.4589C9.78981 32.7585 18.8741 17.0821 21.7549 12.5652C25.7651 6.33011 29.4152 3 30.4955 3C31.5758 3 35.2423 6.33011 39.2361 12.5652C41.96 16.8218 44.1867 21.4269 45.8653 26.2754C45.867 26.2888 45.8727 26.3012 45.8816 26.3108C47.8785 32.2979 48.9752 39.2238 46.831 45.4589C45.5004 49.4658 42.9609 52.8704 39.6224 55.1233L39.629 55.1304ZM22.9171 24.9114C22.7172 24.8298 22.4957 24.8359 22.3 24.9286C22.1042 25.0213 21.9498 25.1931 21.8695 25.4074C20.8807 28.2059 20.6092 31.2415 21.0838 34.1932C21.4299 35.7609 21.4187 37.3962 21.0511 38.9581C20.7761 40.2465 20.6987 41.575 20.822 42.8905C20.8457 43.1035 20.9401 43.2999 21.0877 43.4433C21.2352 43.5866 21.4258 43.6671 21.624 43.6699C21.6629 43.6741 21.7023 43.668 21.7386 43.6522C21.8456 43.6387 21.9491 43.6021 22.0428 43.5446C22.1366 43.4871 22.2187 43.4098 22.2843 43.3173C22.35 43.2248 22.3978 43.1189 22.4249 43.0061C22.4521 42.8932 22.458 42.7756 22.4424 42.6602C22.3419 41.5266 22.4194 40.3827 22.6716 39.277C23.0685 37.4725 23.0741 35.593 22.6879 33.7858C22.2984 31.189 22.541 28.5272 23.3918 26.0628C23.432 25.9527 23.4515 25.835 23.449 25.7166C23.4466 25.5982 23.4222 25.4816 23.3773 25.3736C23.3324 25.2655 23.268 25.1684 23.1878 25.0878C23.1077 25.0072 23.0134 24.9448 22.9105 24.9043L22.9171 24.9114ZM30.4137 31.2351C29.8244 29.3929 30.6592 19.934 31.314 14.4074C31.3352 14.2893 31.3339 14.1678 31.3103 14.0503C31.2867 13.9328 31.2412 13.8217 31.1766 13.7238C31.112 13.6259 31.0297 13.5433 30.9346 13.481C30.8395 13.4186 30.7337 13.3779 30.6237 13.3613C30.5136 13.3447 30.4015 13.3525 30.2943 13.3843C30.1871 13.4161 30.0871 13.4711 30.0002 13.5461C29.9133 13.6212 29.8414 13.7145 29.789 13.8206C29.7366 13.9266 29.7046 14.0431 29.6951 14.163C29.5151 15.6686 27.9601 28.9536 28.8604 31.8055C30.1574 35.1913 30.4547 38.9284 29.7115 42.5043C28.9498 45.1491 28.7853 47.953 29.2319 50.6808C29.249 50.797 29.2872 50.9084 29.3444 51.0084C29.4017 51.1084 29.4768 51.1951 29.5653 51.2633C29.6538 51.3316 29.754 51.3801 29.8601 51.406C29.9661 51.4319 30.0759 51.4347 30.1829 51.4142L30.3188 51.361C30.4992 51.2912 30.6512 51.1551 30.7484 50.9764C30.8456 50.7978 30.8818 50.5878 30.8507 50.3833C30.4364 47.9271 30.5837 45.3985 31.2796 43.018C32.1162 39.0845 31.8116 34.9674 30.4072 31.228L30.4137 31.2351ZM39.7272 40.0918C40.3291 36.65 40.3235 33.1159 39.7108 29.6763C39.6894 29.5623 39.6473 29.454 39.5872 29.3576C39.527 29.2612 39.4499 29.1786 39.3602 29.1144C39.2705 29.0503 39.17 29.0059 39.0645 28.9837C38.959 28.9616 38.8504 28.9622 38.7451 28.9855C38.6395 29.0106 38.5396 29.0581 38.4511 29.1252C38.3626 29.1924 38.2873 29.2778 38.2294 29.3766C38.1716 29.4754 38.1324 29.5857 38.1142 29.701C38.0959 29.8162 38.099 29.9343 38.1231 30.0483C38.6647 33.2455 38.6647 36.5226 38.1231 39.7198C37.1083 44.963 38.074 46.6457 38.2704 46.9291C38.3505 47.0389 38.4525 47.1278 38.5686 47.1891C38.6848 47.2504 38.8123 47.2827 38.9415 47.2834C39.1192 47.2872 39.2926 47.2247 39.4326 47.1063C39.5186 47.0386 39.5912 46.9529 39.6461 46.8544C39.701 46.7558 39.7372 46.6464 39.7524 46.5325C39.7677 46.4186 39.7617 46.3026 39.7349 46.1912C39.7081 46.0798 39.6609 45.9754 39.5962 45.8841C39.5733 45.8593 38.8613 44.513 39.7206 40.0847L39.7272 40.0918Z" fill="#7373D7"/>
<path fill-rule="evenodd" clip-rule="evenodd" d="M30.459 1.35596L31.2906 2.02735C34.6006 4.69972 39.071 9.71792 42.7181 16.0692C46.3678 22.4249 49.25 30.2147 49.25 38.4237C49.25 47.6836 45.4771 52.9728 41.1441 55.8927C36.8959 58.7554 32.2515 59.2499 30.5053 59.2499C28.8593 59.2499 24.3134 59.1371 20.0896 56.4306C15.7766 53.6668 12.0361 48.357 11.7615 38.4583C11.5405 30.4913 14.5288 22.759 18.2679 16.3854C22.0116 10.0042 26.5738 4.87231 29.6665 2.07317L30.459 1.35596ZM30.5469 4.67085C27.6658 7.43787 23.7163 12.039 20.4243 17.6505C16.8122 23.8073 14.0575 31.0679 14.2606 38.389C14.5161 47.6005 17.9321 52.0788 21.4385 54.3257C25.0341 56.6297 28.9703 56.7499 30.5053 56.7499C31.9403 56.7499 36.0432 56.3154 39.7471 53.8195C43.3662 51.3806 46.75 46.8818 46.75 38.4237C46.75 30.7852 44.0602 23.4267 40.5501 17.3141C37.3455 11.7335 33.5046 7.27395 30.5469 4.67085Z" fill="#222222"/>
</svg>
