<svg width="60" height="60" viewBox="0 0 60 60" fill="none" xmlns="http://www.w3.org/2000/svg">
<path d="M32.5 20.5C30.1 17.7 31.5 13.6667 32.5 12C34.4999 18.4 42.6666 17.3333 46.5 16C46.5 17.5 45 21.5 42.5 22.5C40 23.5 35.5 24 32.5 20.5Z" fill="#7373D7"/>
<path d="M38.3252 31.5C35.9252 28.7 37.3252 24.6667 38.3252 23C40.3251 29.4 48.4918 28.3333 52.3252 27C52.3252 28.5 50.8252 32.5 48.3252 33.5C45.8252 34.5 41.3252 35 38.3252 31.5Z" fill="#7373D7"/>
<path d="M24.3252 31.5C21.9252 28.7 23.3252 24.6667 24.3252 23C26.3251 29.4 34.4918 28.3333 38.3252 27C38.3252 28.5 36.8252 32.5 34.3252 33.5C31.8252 34.5 27.3252 35 24.3252 31.5Z" fill="#7373D7"/>
<path d="M10.3252 31.5C7.92516 28.7 9.32516 24.6667 10.3252 23C12.3251 29.4 20.4918 28.3333 24.3252 27C24.3252 28.5 22.8252 32.5 20.3252 33.5C17.8252 34.5 13.3252 35 10.3252 31.5Z" fill="#7373D7"/>
<path d="M16.3252 20.5C13.9252 17.7 15.3252 13.6667 16.3252 12C18.3251 18.4 26.4918 17.3333 30.3252 16C30.3252 17.5 28.8252 21.5 26.3252 22.5C23.8252 23.5 19.3252 24 16.3252 20.5Z" fill="#7373D7"/>
<path d="M16.3252 41.5C13.9252 38.7 15.3252 34.6667 16.3252 33C18.3251 39.4 26.4918 38.3333 30.3252 37C30.3252 38.5 28.8252 42.5 26.3252 43.5C23.8252 44.5 19.3252 45 16.3252 41.5Z" fill="#7373D7"/>
<path d="M23.3252 53.5C20.9252 50.7 22.3252 46.6667 23.3252 45C25.3251 51.4 33.4918 50.3333 37.3252 49C37.3252 50.5 35.8252 54.5 33.3252 55.5C30.8252 56.5 26.3252 57 23.3252 53.5Z" fill="#7373D7"/>
<path d="M31.3252 42.5C28.9252 39.7 30.3252 35.6667 31.3252 34C33.3251 40.4 41.4918 39.3333 45.3252 38C45.3252 39.5 43.8252 43.5 41.3252 44.5C38.8252 45.5 34.3252 46 31.3252 42.5Z" fill="#7373D7"/>
<path d="M52.1288 27.2855C52.1288 23.4202 49.3909 20.1991 45.6867 19.4744C46.1698 18.4275 46.492 17.2196 46.492 16.0117C46.492 11.6633 42.9488 8.03953 38.5198 8.03953C34.0908 8.03953 30.5476 11.5827 30.5476 16.0117C30.5476 16.0922 30.5476 16.2533 30.5476 16.3338C29.7423 10.5359 31.2723 4.81845 34.4129 2.80527H41.1772V2H26.2796V2.80527H33.1245C30.9502 4.73792 29.6618 8.44217 29.5813 12.549C28.2928 9.89166 25.5549 8.03953 22.4143 8.03953C18.0659 8.03953 14.4422 11.5827 14.4422 16.0117C14.4422 17.2196 14.6837 18.347 15.1669 19.3939C11.06 19.7965 8 23.1786 8 27.2855C8 31.3119 10.9795 34.6135 14.8448 35.1772C14.5227 35.9824 14.4422 36.8682 14.4422 37.754C14.4422 42.1025 17.9854 45.7262 22.4143 45.7262C21.9312 46.7731 21.6896 47.9004 21.6896 49.0278C21.6896 53.3763 25.2328 57 29.6618 57C34.0908 57 37.634 53.4568 37.634 49.0278C37.634 47.9004 37.3924 46.8536 36.9898 45.8873C37.2313 45.8873 37.4729 45.8873 37.7145 45.8873C42.063 45.8873 45.6867 42.3441 45.6867 37.9151C45.6867 36.9488 45.5256 35.9824 45.2035 35.0966C49.0688 34.6135 52.1288 31.3119 52.1288 27.2855ZM38.5198 8.8448C42.4656 8.8448 45.6867 12.0659 45.6867 16.0117C45.6867 19.9575 42.4656 23.1786 38.5198 23.1786C34.5739 23.1786 31.3529 19.9575 31.3529 16.0117C31.3529 12.0659 34.5739 8.8448 38.5198 8.8448ZM30.0644 35.6603C29.9839 35.4993 29.9839 35.3382 29.9034 35.1772C29.9839 35.1772 30.145 35.1772 30.2255 35.1772C30.2255 35.3382 30.1449 35.4993 30.0644 35.6603ZM29.6618 34.3719C25.716 34.3719 22.4949 31.1508 22.4949 27.205C22.4949 25.9971 22.817 24.8697 23.3807 23.8228C25.877 23.5007 27.9707 22.1318 29.1786 20.1186C30.145 20.0381 31.1113 20.1991 31.9971 20.5212C32.8829 21.8097 34.1713 22.8565 35.7013 23.4202C36.4261 24.5476 36.8287 25.9165 36.8287 27.2855C36.8287 31.1508 33.6076 34.3719 29.6618 34.3719ZM36.7482 23.7423C36.8287 23.7423 36.9092 23.7423 36.9898 23.8228C36.9898 23.9034 36.9092 23.9839 36.9092 24.0644C36.9092 23.9034 36.8287 23.8228 36.7482 23.7423ZM31.4334 19.4744C31.3529 19.4744 31.3529 19.4744 31.2723 19.4744L31.1113 18.7496C31.1918 18.9912 31.2723 19.2328 31.4334 19.4744ZM30.3865 19.3133C30.145 19.3133 29.9034 19.3133 29.5813 19.3133C29.7423 18.9107 29.9034 18.5081 30.0644 18.0249C30.1449 18.2665 30.145 18.5886 30.2255 18.8302L30.3865 19.3133ZM22.4143 8.8448C26.3602 8.8448 29.5813 12.0659 29.5813 16.0117C29.5813 19.9575 26.3602 23.1786 22.4143 23.1786C18.4685 23.1786 15.2474 19.9575 15.2474 16.0117C15.2474 12.0659 18.4685 8.8448 22.4143 8.8448ZM8.80527 27.2855C8.80527 23.4202 11.7848 20.3602 15.6501 20.1186C17.019 22.3734 19.5959 23.9034 22.4143 23.9034C21.9312 24.9502 21.6896 26.0776 21.6896 27.205C21.6896 28.3324 21.9312 29.3792 22.3338 30.3455C21.1259 32.7613 18.7101 34.2914 15.9722 34.2914C12.0264 34.3719 8.80527 31.1508 8.80527 27.2855ZM15.2474 37.754C15.2474 36.8682 15.4085 36.063 15.7306 35.2577C15.8111 35.2577 15.8917 35.2577 15.9722 35.2577C18.7906 35.2577 21.3675 33.7277 22.817 31.3119C24.1054 33.4861 26.4407 35.0161 29.0981 35.1772C29.4202 35.9824 29.5813 36.8682 29.5813 37.754C29.5813 41.6999 26.3602 44.9209 22.4143 44.9209C18.4685 44.9209 15.2474 41.6193 15.2474 37.754ZM36.0234 45.8067C36.5066 46.7731 36.7482 47.9004 36.7482 49.0278C36.7482 52.9736 33.5271 56.1947 29.5813 56.1947C25.6354 56.1947 22.4143 52.9736 22.4143 49.0278C22.4143 47.8199 22.7365 46.6925 23.3001 45.6457C26.4407 45.243 29.0981 42.9883 29.9839 40.0088C30.7892 42.8272 33.1245 45.082 36.0234 45.8067C36.0234 45.7262 36.0234 45.7262 36.0234 45.8067ZM44.8814 37.9151C44.8814 41.8609 41.6603 45.082 37.7145 45.082C33.7687 45.082 30.5476 41.8609 30.5476 37.9151C30.5476 36.8682 30.7892 35.9019 31.1918 35.0161C33.7687 34.5329 35.8624 32.7614 36.9092 30.5066C38.1977 33.325 41.0161 35.1772 44.1567 35.1772C44.2372 35.1772 44.2372 35.1772 44.3177 35.1772C44.6398 36.063 44.8814 36.9488 44.8814 37.9151ZM44.1567 34.3719C41.0161 34.3719 38.2782 32.3587 37.3119 29.3792C37.4729 28.735 37.634 28.0103 37.634 27.2855C37.634 26.5608 37.5534 25.836 37.3119 25.1918C37.4729 24.7892 37.634 24.306 37.8755 23.9034C38.1171 23.9034 38.2782 23.9034 38.5198 23.9034C41.3382 23.9034 43.8346 22.3734 45.284 20.1991C48.7467 20.7628 51.3236 23.7423 51.3236 27.2855C51.3236 31.1508 48.1025 34.3719 44.1567 34.3719Z" fill="#42210B"/>
<path fill-rule="evenodd" clip-rule="evenodd" d="M25.6296 1.3501H41.8271V3.45537H34.6102C33.299 4.37126 32.2542 6.08637 31.6264 8.32581C31.3355 9.36347 31.1392 10.4973 31.0466 11.687C32.5319 9.11087 35.3117 7.38963 38.5197 7.38963C43.312 7.38963 47.1419 11.3086 47.1419 16.0118C47.1419 17.0546 46.923 18.0857 46.5771 19.0226C50.1872 20.0749 52.7788 23.3749 52.7788 27.2856C52.7788 31.3818 49.8592 34.7777 46.044 35.6115C46.2397 36.3583 46.3367 37.1382 46.3367 37.9152C46.3367 42.6402 42.5269 46.4297 37.912 46.5351C38.1485 47.318 38.2839 48.1494 38.2839 49.0279C38.2839 53.8159 34.4497 57.6501 29.6618 57.6501C24.8695 57.6501 21.0396 53.7311 21.0396 49.0279C21.0396 48.1152 21.1859 47.2024 21.4785 46.326C17.133 45.8554 13.7921 42.1468 13.7921 37.7541C13.7921 37.0805 13.8362 36.3714 14.0053 35.6782C10.197 34.7776 7.34998 31.38 7.34998 27.2856C7.34998 23.1311 10.2495 19.6588 14.2575 18.8712C13.9466 17.966 13.7921 17.0116 13.7921 16.0118C13.7921 11.2196 17.7112 7.38963 22.4143 7.38963C25.0856 7.38963 27.4841 8.62648 29.0648 10.5484C29.3861 7.77886 30.2647 5.25324 31.6437 3.45537H25.6296V1.3501ZM29.6858 13.1465C29.6867 12.9904 29.6893 12.8348 29.6935 12.6798L29.5027 12.7217C29.5678 12.8611 29.6289 13.0028 29.6858 13.1465ZM36.1556 45.5754L36.2126 45.7122L36.1442 45.7464L36.0385 45.7464L36.0849 45.5607C36.1085 45.5657 36.132 45.5706 36.1556 45.5754ZM30.7109 16.3676L30.2216 16.4014C30.221 16.4129 30.2205 16.4243 30.2198 16.4358L30.681 17.8194C30.7403 17.9972 30.7676 18.1892 30.7856 18.3162C30.7866 18.3229 30.7875 18.3294 30.7884 18.3357C30.8106 18.4913 30.8239 18.5703 30.8421 18.6247L30.8924 18.7756L31.1791 18.6962C30.9101 17.9644 30.7476 17.1818 30.7109 16.3676ZM21.479 24.5016C18.9453 24.2196 16.6796 22.8105 15.3159 20.8007C11.9656 21.1881 9.45525 23.9017 9.45525 27.2856C9.45525 30.7897 12.3801 33.7146 15.9589 33.6416L15.9722 33.6413C18.3629 33.6413 20.4817 32.3602 21.6192 30.3078C21.256 29.3508 21.0396 28.3155 21.0396 27.2051C21.0396 26.2918 21.1861 25.3785 21.479 24.5016ZM22.8159 32.4701C21.24 34.5374 18.8249 35.8379 16.1869 35.9051C15.9933 36.5005 15.8974 37.1016 15.8974 37.7541C15.8974 41.2652 18.8322 44.271 22.4143 44.271C26.0012 44.271 28.9312 41.341 28.9312 37.7541C28.9312 37.0809 28.8292 36.4115 28.628 35.7887C26.2717 35.5226 24.188 34.2667 22.8159 32.4701ZM29.9709 41.7426C28.7242 44.082 26.4065 45.7848 23.7264 46.2394C23.2994 47.1192 23.0643 48.0471 23.0643 49.0279C23.0643 52.6148 25.9944 55.5448 29.5812 55.5448C33.1681 55.5448 36.0981 52.6148 36.0981 49.0279C36.0981 48.091 35.9165 47.1642 35.563 46.3561C33.1285 45.6557 31.0935 43.9494 29.9709 41.7426ZM36.9056 31.8536C35.7289 33.6705 33.8757 35.0679 31.6563 35.5828C31.3653 36.3094 31.1976 37.0858 31.1976 37.9152C31.1976 41.502 34.1276 44.4321 37.7145 44.4321C41.3013 44.4321 44.2314 41.502 44.2314 37.9152C44.2314 37.2009 44.083 36.5235 43.8533 35.8219C40.9933 35.7213 38.4136 34.2036 36.9056 31.8536ZM36.925 24.3925C36.9678 24.2857 37.0138 24.1752 37.0636 24.0645H36.7867C36.8352 24.1726 36.8813 24.282 36.925 24.3925ZM35.2639 23.9484C33.7648 23.3477 32.4962 22.3199 31.5867 21.0669C30.9308 20.85 30.2391 20.7336 29.5494 20.7496C28.2728 22.6854 26.2212 24.0134 23.8067 24.4169C23.3799 25.2966 23.1448 26.2243 23.1448 27.2051C23.1448 30.7919 26.0749 33.722 29.6618 33.722C33.2534 33.722 36.1787 30.7872 36.1787 27.2856C36.1787 26.111 35.8519 24.9353 35.2639 23.9484ZM36.7481 24.0645L36.5301 24.2826C36.549 24.3015 36.5758 24.3233 36.6107 24.3429C36.6458 24.3627 36.6806 24.3754 36.7113 24.3831C36.7258 24.3867 36.7384 24.3889 36.7481 24.3903V24.0645ZM22.4143 9.4949C18.8275 9.4949 15.8974 12.425 15.8974 16.0118C15.8974 19.5987 18.8275 22.5287 22.4143 22.5287C26.0012 22.5287 28.9312 19.5987 28.9312 16.0118C28.9312 12.425 26.0012 9.4949 22.4143 9.4949ZM38.5197 9.4949C34.9329 9.4949 32.0028 12.425 32.0028 16.0118C32.0028 19.5987 34.9329 22.5287 38.5197 22.5287C42.1066 22.5287 45.0367 19.5987 45.0367 16.0118C45.0367 12.425 42.1066 9.4949 38.5197 9.4949ZM45.5738 20.9173C43.9879 23.0629 41.4193 24.5535 38.5197 24.5535H38.2687C38.1877 24.7298 38.1149 24.9183 38.0377 25.1193C38.0266 25.1482 38.0154 25.1773 38.0041 25.2067C38.217 25.8828 38.2839 26.6019 38.2839 27.2856C38.2839 28.0206 38.1366 28.7399 37.9884 29.3506C38.9164 31.9699 41.3614 33.722 44.1566 33.722C47.7483 33.722 50.6736 30.7872 50.6736 27.2856C50.6736 24.2006 48.5247 21.5833 45.5738 20.9173Z" fill="#222222"/>
</svg>
