<svg width="38" height="60" viewBox="0 0 38 60" fill="none" xmlns="http://www.w3.org/2000/svg">
<path d="M37.5889 38.4763H0.309623V37.3125C0.25 38.5133 0.25 39.8053 0.25 41.3208C0.25 51.637 8.61302 60.0001 18.9292 60.0001C29.2455 60.0001 37.6085 51.637 37.6085 41.3208C37.6085 40.2816 37.6085 39.348 37.5889 38.4763Z" fill="#7373D7"/>
<path d="M16.6113 0.656061C10.6484 13.8599 -1.57697 27.9059 0.480667 43.2912C2.09395 55.3511 13.3515 62.5798 24.9402 59.1434C29.9094 57.6701 34.1519 53.6026 36.1496 48.8639C38.8424 42.4772 37.7245 36.528 35.8184 30.0873C32.5733 19.127 24.0396 10.2741 18.541 0.409654C18.0183 -0.527878 16.5817 0.311239 17.1044 1.25025C21.6094 9.33064 27.6233 16.4757 31.9124 24.6523C37.4272 35.1642 38.8121 49.8761 26.9668 56.4988C21.6345 59.4794 14.7259 58.954 9.67165 55.7448C4.58264 52.5133 2.18785 46.3058 1.88915 40.5237C1.52538 33.4786 5.04474 26.4408 8.14931 20.3472C11.3729 14.019 15.1222 7.97725 18.0493 1.49592C18.4863 0.526568 17.0527 -0.320689 16.6113 0.656061Z" fill="#222222"/>
</svg>
