<svg width="60" height="60" viewBox="0 0 60 60" fill="none" xmlns="http://www.w3.org/2000/svg">
<path d="M19.375 51.25C16.375 50.75 13.9583 48.125 13.125 46.875C16.625 47.375 19.5833 41.6667 20.625 38.75L25.625 36.25C30.625 36.25 39.7917 31.25 43.75 28.75C42.9167 29.5833 41.25 31.875 41.25 34.375C41.25 37.5 39.375 36.875 37.5 38.75C35.625 40.625 36.25 43.75 34.375 45C32.5 46.25 28.75 51.25 27.5 51.875C26.25 52.5 23.125 51.875 19.375 51.25Z" fill="#7373D7"/>
<path d="M10 35C7.5 36 2.08333 31.875 0.625 30C2.5 30 6.25 26.25 8.75 26.25C11.25 26.25 10.625 25.625 13.125 23.75C15.625 21.875 16.875 21.875 18.75 20C20.2077 18.5423 28.9583 16.6667 31.25 16.25C30.4167 16.875 28.5 18.5 27.5 20C26.25 21.875 25.625 22.5 23.75 25C21.875 27.5 19.375 28.125 16.875 30.625C14.375 33.125 13.125 33.75 10 35Z" fill="#7373D7"/>
<path d="M58.9829 0.014838C54.2517 0.956409 51.497 4.65473 48.0544 8.08048C47.8013 8.33316 47.7334 8.7522 47.8937 9.07191C48.0897 9.74194 47.5984 10.1227 47.224 10.5457C46.488 11.1867 45.2655 11.7994 44.0366 12.2072C43.5631 12.3553 43.3036 12.9701 43.5277 13.4129C43.8356 14.0258 43.8613 14.7882 43.4474 15.5299C43.0333 16.2713 42.1762 17.0156 40.6081 17.4056C40.1496 17.5152 39.8466 18.0556 39.992 18.5042C40.3193 19.4811 40.0339 20.4029 39.0278 21.4518C38.0217 22.5007 36.2858 23.5592 33.9653 24.3994C33.5152 24.5614 33.2756 25.1472 33.4832 25.5784C33.8431 26.7579 32.9844 27.6651 32.2243 28.3384C30.9731 29.4341 29.0437 30.51 27.3226 31.3664C26.9549 31.5498 26.761 32.0225 26.894 32.4114C27.0532 33.6906 26.0594 34.6046 25.2065 35.2787C23.7917 36.3849 21.6657 37.4559 19.528 38.3066C19.1199 38.4619 18.8815 38.9639 19.0191 39.3785C19.1861 40.7485 18.2369 41.8716 17.3852 42.728C16.0596 44.0471 14.1536 45.3269 12.4835 46.1579C12.2024 46.2946 12.009 46.5957 12.0013 46.9082C12.0013 50.5281 12.896 53.9853 14.9209 56.4746C16.7993 58.7834 19.6839 60.162 23.4119 59.9847C23.816 59.9976 24.2002 59.924 24.5637 59.8776C37.4439 54.1319 44.3847 44.5623 49.0187 33.912C53.6528 23.2618 56.0515 11.5047 59.9471 1.16709C60.0778 0.846609 59.954 0.474084 59.71 0.234512C59.3873 -0.0580306 59.2447 -0.000419127 58.9829 0.014838ZM56.2775 3.0162L50.733 10.6531C50.5485 10.9036 50.5164 11.2577 50.6527 11.5374C51.272 13.1523 50.4584 14.579 49.7955 15.9051C48.7068 17.835 46.8801 19.7623 47.1705 21.854C46.0041 22.6588 44.9708 23.4988 44.1973 24.5603C43.4139 25.6357 42.9736 26.9674 42.8581 28.5262C40.5218 30.4899 39.5819 33.142 39.4831 36.324C37.9459 36.8559 36.7713 37.7007 36.0278 38.8696C35.2352 40.1156 34.8005 41.6095 34.3939 43.2105C32.473 44.3419 31.7069 46.1549 30.8047 47.6587C29.852 49.2467 28.7432 50.6518 25.6083 51.4637C21.8216 51.4372 16.5488 49.8585 14.037 47.2031C15.6319 46.3307 17.2967 45.2215 18.5905 43.9341C19.9091 42.6551 20.6422 41.3327 20.7334 39.6466C22.769 38.8019 24.7763 37.7928 26.2779 36.6187C27.71 35.5122 28.4924 34.3039 28.5815 32.6528C30.2295 31.8144 32.0025 30.8309 33.3493 29.6516C34.6793 28.4878 35.3154 27.3006 35.2243 25.6857C37.357 24.8371 39.1316 23.8353 40.2867 22.631C41.3542 21.5181 41.7661 20.1604 41.626 18.7991C43.1749 18.2695 44.3552 17.4481 44.9473 16.3876C45.4584 15.4721 45.4496 14.4759 45.242 13.5471C46.3925 13.1038 47.5059 12.5663 48.3491 11.8321C49.3439 10.9644 49.6463 10.1355 49.5812 8.96498C51.9618 6.56404 53.9589 4.37545 56.2775 3.0162ZM56.7865 5.2403C53.7023 14.4854 51.3199 24.2948 47.4384 33.2156C43.2565 42.8264 37.3077 51.3131 26.6529 56.9301C27.1839 55.6977 27.3762 54.2592 27.4029 52.6696C30.0144 51.6604 31.3732 50.0509 32.2779 48.5431C33.3415 46.7701 33.8732 45.3056 35.5189 44.4967C35.7426 44.3875 35.9139 44.1758 35.9742 43.9341C36.3987 42.2353 36.8217 40.8333 37.4742 39.8074C38.1268 38.7815 38.9661 38.1011 40.501 37.7173C40.8657 37.6231 41.144 37.2635 41.1438 36.8866C41.1438 33.5996 41.8767 31.3896 44.1438 29.6248C44.3534 29.4701 44.4858 29.2154 44.492 28.9549C44.5324 27.497 44.8963 26.4675 45.5634 25.5518C46.2305 24.6363 47.2339 23.8393 48.483 23.0061C48.8288 22.7777 48.9627 22.2784 48.7776 21.9074C48.7024 19.8236 50.5115 18.3168 51.3491 16.6822C52.2369 14.947 52.9258 13.0949 52.3669 11.3231L56.7865 5.2403ZM38.0099 7.70558C35.022 7.75101 32.7423 9.55629 30.1618 11.0283C29.8478 11.2013 29.6664 11.5869 29.7333 11.9393C29.7586 12.1785 29.3751 12.3051 29.2244 12.4217C28.7019 12.6755 27.8233 12.8553 27.0012 12.9039C26.5096 12.9382 26.1155 13.4683 26.2244 13.9491C26.2945 14.2875 26.2016 14.6617 25.8762 14.9942C25.5508 15.3263 24.9492 15.627 23.9477 15.6104C23.4805 15.6104 23.0614 16.055 23.0905 16.5215C23.1239 17.0706 22.8865 17.4845 22.1263 17.9416C21.366 18.399 20.0994 18.7692 18.5102 18.9062C18.039 18.9568 17.6687 19.4595 17.7602 19.9246C17.7198 20.5818 17.0897 20.8361 16.6353 21.1305C15.6981 21.589 14.3035 21.9534 13.0728 22.2022C12.6708 22.2785 12.3565 22.6777 12.3764 23.0865C12.2382 23.7812 11.5395 24.0353 11.0103 24.3192C9.96658 24.7603 8.45327 25.0818 6.96574 25.257C6.53531 25.3102 6.18541 25.7353 6.21575 26.1682C6.02631 26.9222 5.29864 27.3318 4.74256 27.7223C3.71311 28.3095 2.30188 28.7977 1.12653 29.0354C0.812234 29.0937 0.541445 29.3432 0.456897 29.6516C-0.175623 31.984 -0.201757 34.3532 0.697968 36.3507C1.58576 38.3217 3.45027 39.8186 6.18896 40.2629C6.60719 40.3648 7.16974 40.2132 7.50145 40.1022C16.2162 38.4529 22.0803 33.6745 26.7066 27.9098C31.4995 21.9377 35.0446 14.938 39.2689 9.09901C39.6352 8.60401 39.2408 7.76548 38.626 7.73231C38.4203 7.71946 38.2092 7.70231 38.01 7.70574L38.0099 7.70558ZM34.6885 10.4387L31.7689 13.4398C31.6709 13.5365 31.5967 13.6571 31.5547 13.7883C31.2969 14.6559 30.5058 15.5948 29.6261 16.6287C28.844 17.5478 28.0513 18.5967 27.644 19.871C26.7967 20.178 25.9922 20.5063 25.3137 21.05C24.6162 21.6092 24.0926 22.3892 23.7333 23.3546C21.9662 24.219 20.9254 25.7596 20.3048 27.6687C19.251 27.7806 18.3303 28.1238 17.6531 28.7406C16.8909 29.4348 16.3687 30.3329 15.8317 31.2863C14.4226 31.7568 13.4855 32.7464 12.6174 33.5639C11.6595 34.4659 10.7114 35.1545 8.67996 35.145C6.51863 34.522 3.93042 32.3359 2.81397 30.2679C3.75989 30.0101 4.73065 29.7034 5.57286 29.2229C6.69648 28.613 7.34823 27.8406 7.79605 26.7844C9.15831 26.5904 10.5592 26.3738 11.6799 25.9001C12.8562 25.4266 13.5065 24.7607 13.9835 23.7296C15.1269 23.4812 16.35 23.1911 17.3852 22.6847C18.4744 22.1556 19.0366 21.5175 19.3941 20.4873C20.8161 20.2984 22.0707 19.9805 23.0101 19.4155C23.8564 18.9063 24.3682 18.1019 24.5905 17.2182C25.6263 17.1064 26.5329 16.7876 27.1083 16.1999C27.5906 15.7074 27.7878 15.0897 27.8583 14.4582C28.5918 14.359 29.3481 14.2802 29.9743 13.9758C30.3981 13.77 30.7779 13.4899 31.0725 13.0916C31.2143 12.8999 31.1707 12.6169 31.2332 12.3681C32.4886 11.6423 33.6083 10.9683 34.6885 10.4387ZM34.6885 12.9039C31.6678 17.6143 28.8142 22.543 25.3672 26.838C21.3564 31.8357 16.5456 35.9337 9.64423 37.8513C9.80801 37.5069 9.94773 37.1386 10.0728 36.7527C11.761 36.4423 12.9351 35.6072 13.796 34.7966C14.8968 33.7599 15.5537 32.913 16.6084 32.7064C16.8501 32.6652 17.071 32.5145 17.1977 32.3045C17.7551 31.3075 18.26 30.4961 18.8048 30C19.3496 29.5037 19.9124 29.2602 20.8941 29.2766C21.2708 29.2767 21.6302 28.9983 21.7244 28.6334C22.2722 26.6038 23.0638 25.4439 24.7244 24.7479C24.9524 24.6505 25.1335 24.4491 25.2065 24.2121C25.466 23.347 25.8464 22.8215 26.3851 22.3899C26.9238 21.9579 27.6576 21.6283 28.5815 21.318C28.8634 21.2213 29.0856 20.9673 29.144 20.6749C29.3512 19.7059 30.076 18.7678 30.9386 17.7541C31.7277 16.8268 32.5907 15.8175 33.0546 14.5922L34.6885 12.9039ZM1.82291 32.0097C3.31879 34.2458 5.7969 36.1461 8.25139 36.833C8.05206 37.2939 7.81823 37.6709 7.58176 37.9584C7.26083 38.3907 6.88914 38.4681 6.42999 38.548C4.17662 38.1736 2.91571 37.1287 2.25148 35.654C1.78917 34.6276 1.68247 33.3636 1.82291 32.0097ZM13.9299 49.4809C17.1185 52.0346 21.9596 53.1736 25.6887 53.1788C25.6248 54.4395 25.4206 55.5159 25.0458 56.3406C24.6138 57.2915 24.0003 57.9026 23.0369 58.2699C19.9311 58.3578 17.7761 57.2662 16.2602 55.4028C15.0227 53.8815 14.2505 51.797 13.9299 49.4809Z" fill="#222222"/>
</svg>
