<svg width="60" height="60" viewBox="0 0 60 60" fill="none" xmlns="http://www.w3.org/2000/svg">
<path d="M60 52.9091C60 55.7207 46.5685 58 30 58C13.4315 58 0 55.7207 0 52.9091C0 50.0975 13.4315 50 30 50C46.5685 50 60 50.0975 60 52.9091Z" fill="#7373D7"/>
<path fill-rule="evenodd" clip-rule="evenodd" d="M58.0124 52.914C58.0126 52.914 58.0118 52.9166 58.0094 52.9219C58.011 52.9167 58.0122 52.914 58.0124 52.914ZM57.9611 53C57.9429 52.975 57.9187 52.9443 57.8868 52.908C57.6946 52.6887 57.3205 52.3818 56.6764 52.0265C55.3895 51.3166 53.3949 50.613 50.7587 49.9979C45.5183 48.7752 38.178 48 30 48C21.822 48 14.4817 48.7752 9.24126 49.9979C6.60506 50.613 4.61049 51.3166 3.32362 52.0265C2.67948 52.3818 2.30542 52.6887 2.11317 52.908C2.08128 52.9443 2.05712 52.9749 2.03894 53C2.05712 53.0251 2.08128 53.0557 2.11317 53.092C2.30542 53.3113 2.67948 53.6182 3.32362 53.9735C4.61049 54.6834 6.60506 55.387 9.24126 56.0021C14.4817 57.2248 21.822 58 30 58C38.178 58 45.5183 57.2248 50.7587 56.0021C53.3949 55.387 55.3895 54.6834 56.6764 53.9735C57.3205 53.6182 57.6946 53.3113 57.8868 53.092C57.9187 53.0557 57.9429 53.0251 57.9611 53ZM1.98759 52.914C1.9878 52.914 1.98899 52.9166 1.99057 52.9219C1.98817 52.9166 1.98739 52.914 1.98759 52.914ZM1.98759 53.086C1.98739 53.086 1.98817 53.0834 1.99057 53.0781C1.98899 53.0834 1.9878 53.086 1.98759 53.086ZM58.0094 53.0781C58.0118 53.0834 58.0126 53.086 58.0124 53.086C58.0122 53.086 58.011 53.0834 58.0094 53.0781ZM30 60C46.5685 60 60 56.866 60 53C60 49.134 46.5685 46 30 46C13.4315 46 0 49.134 0 53C0 56.866 13.4315 60 30 60Z" fill="#222222"/>
<path d="M47.6778 34.9548C44.4865 39.1498 38.8599 37.0523 37.9361 36.6328C39.4477 33.8641 40.3715 30.3403 39.6997 26.0614C39.6997 26.0614 39.4477 22.6216 41.4633 20.5241C42.471 19.4334 43.9827 18.93 45.9142 18.93C46.3341 18.93 46.754 18.5944 46.754 18.091C46.754 17.5876 46.4181 17.252 45.9142 17.252C43.4788 17.1681 41.5472 17.9232 40.2036 19.3495C39.4477 20.1046 38.9439 21.0275 38.6079 21.9504C37.6842 18.3427 37.8521 15.2384 39.1958 12.7214C41.0434 9.19761 44.5705 8.10692 44.6545 8.02302C45.0744 7.85522 45.3263 7.43572 45.2424 7.01623C45.1584 6.59673 44.6545 6.34503 44.2346 6.42893C44.0666 6.51283 40.0356 7.77132 37.7681 11.8824C36.0885 15.0706 35.9206 19.0978 37.4322 23.7122C41.1273 35.3743 31.3857 41.7507 29.958 42.5896C29.1182 42.6735 24.9192 42.7575 21.9799 40.5761C23.4915 39.4854 26.3469 37.0523 27.8585 32.9412C28.1104 32.9412 28.2784 32.9412 28.5303 32.9412C30.8818 32.9412 34.4089 31.8505 35.2487 27.4877C35.3327 27.0682 35.0808 26.5648 34.5769 26.4809C34.157 26.397 33.6531 26.6487 33.5691 27.1521C32.8133 30.9276 29.6221 31.2632 28.3624 31.2632C28.6143 30.0886 28.8663 28.8301 28.8663 27.4877C28.8663 26.4809 28.9502 25.6419 29.0342 24.8029C29.79 18.7622 32.8973 17.0003 33.0653 16.9164C33.4852 16.6647 33.6531 16.1613 33.4012 15.8257C33.2332 15.4062 32.6454 15.2384 32.3094 15.4901C32.2255 15.4901 31.5536 15.9096 30.7138 16.7486C30.042 14.9867 28.1944 11.5468 24.4993 9.86881C26.0949 9.02982 27.6066 7.60352 28.0265 5.17044C28.1104 4.75094 27.7745 4.24754 27.3546 4.16364C26.9347 4.07974 26.4308 4.41534 26.3469 4.83484C25.759 8.19082 22.3158 8.86202 21.644 9.02982C20.2163 8.77812 19.2085 8.19082 18.6207 7.18403C17.193 4.83484 18.2848 1.14325 18.3687 1.14325C18.5367 0.723756 18.2848 0.220359 17.7809 0.0525599C17.361 -0.115239 16.8571 0.13646 16.6891 0.555958C16.6052 0.723757 15.2615 5.00264 17.109 8.02302C18.0328 9.44931 19.4605 10.3722 21.392 10.6239C27.4386 11.5468 29.2022 17.8393 29.2862 18.091V18.1749C28.4464 19.4334 27.6905 21.1953 27.2706 23.6283C25.675 23.2927 22.3158 21.9504 22.0639 17.8393C22.0639 17.3359 21.644 17.0003 21.1401 17.0842C20.6362 17.0842 20.3003 17.5037 20.3843 18.0071C20.6362 22.7894 24.4993 24.8029 27.0187 25.3902C26.9347 26.0614 26.9347 26.7326 26.9347 27.4877C26.9347 34.5353 22.2318 38.3108 20.5522 39.4015C19.4605 38.0591 18.9566 36.3811 18.9566 34.2836C18.9566 23.4605 6.19164 20.6919 6.02368 20.6919C5.60378 20.608 5.09989 20.8597 5.01591 21.3631C4.93193 21.7826 5.18388 22.2859 5.68776 22.3699C5.77174 22.3699 16.8571 24.8029 17.277 33.7802C15.8493 34.2836 11.6503 35.5421 7.87124 32.27C7.53532 31.9344 7.03144 32.0183 6.69552 32.3539C6.3596 32.6895 6.44358 33.1929 6.7795 33.5285C9.13094 35.5421 11.5664 36.1294 13.6659 36.1294C15.1775 36.1294 16.5212 35.7938 17.361 35.5421C17.5289 37.8074 18.3687 39.6532 19.7964 41.0795C19.7964 41.1634 19.8804 41.1634 19.8804 41.1634C19.9644 41.2473 20.0483 41.3312 20.1323 41.4151C23.0716 44.0998 27.3546 44.3515 29.2022 44.3515V53.161C29.2022 53.6644 29.5381 54 30.042 54C30.5459 54 30.8818 53.6644 30.8818 53.161V43.932C31.8895 43.2609 34.6609 41.3312 36.8444 38.0591C36.8444 38.0591 36.8444 38.0591 36.9283 38.0591C36.9283 38.0591 39.2798 39.0659 42.0511 39.0659C44.3186 39.0659 46.922 38.3947 48.8535 35.8777C49.1055 35.5421 49.0215 34.9548 48.6856 34.7031C48.4336 34.4514 47.9297 34.5353 47.6778 34.9548Z" fill="#222222"/>
</svg>
