<svg width="7" height="14" viewBox="0 0 7 14" fill="none" xmlns="http://www.w3.org/2000/svg">
<path d="M0.658 13.176C0.583333 13.176 0.518 13.148 0.462 13.092C0.406 13.036 0.378 12.9707 0.378 12.896C0.378 12.8493 0.392 12.7933 0.42 12.728L5.236 1.206C5.25467 1.16867 5.28733 1.12667 5.334 1.08C5.38067 1.024 5.45067 0.996 5.544 0.996H5.782C5.85667 0.996 5.922 1.024 5.978 1.08C6.034 1.136 6.062 1.20133 6.062 1.276C6.062 1.31333 6.048 1.36933 6.02 1.444L1.204 12.966C1.19467 13.0033 1.162 13.0453 1.106 13.092C1.05933 13.148 0.989333 13.176 0.896 13.176H0.658Z" fill="#222222"/>
</svg>
