<svg width="302" height="226" viewBox="0 0 302 226" fill="none" xmlns="http://www.w3.org/2000/svg">
<path fill-rule="evenodd" clip-rule="evenodd" d="M152.771 91.2122C150.771 91.5825 148.621 92.6029 146.441 94.2166C142.038 97.4756 139.015 102.935 138.102 109.277C137.082 116.353 138.857 123.672 142.798 128.638C145.146 131.597 147.764 133.385 151.02 134.253C152.284 134.59 152.753 134.644 154.4 134.642C157.048 134.638 158.819 134.152 161.979 132.565C163.28 131.911 164.704 131.469 165.508 131.469C166.666 131.469 167.577 131.894 168.601 132.913L169.556 133.862L169.593 125.341L169.629 116.82L171.223 116.78C172.127 116.758 172.817 116.681 172.817 116.603C172.817 116.517 170.252 116.466 165.875 116.466C161.342 116.466 158.933 116.516 158.933 116.608C158.933 116.695 159.665 116.75 160.846 116.75H162.758V122.81C162.758 129.683 162.74 129.827 161.72 131.077C159.726 133.521 156.338 134.777 153.216 134.229C150.013 133.668 148.357 131.766 146.928 127.01C146.357 125.109 145.921 123.147 145.764 121.774C145.692 121.151 145.551 120.037 145.45 119.297C145.165 117.209 145.208 108.975 145.516 106.63C145.65 105.618 145.793 104.472 145.835 104.083C146.048 102.107 147.146 98.2877 148.011 96.5109C149.192 94.0867 150.396 92.7756 152.27 91.8747C156.334 89.9213 161.16 92.8939 164.394 99.3421C164.819 100.189 165.167 100.933 165.167 100.994C165.167 101.055 165.32 101.52 165.506 102.028C165.693 102.535 166.023 103.603 166.239 104.401C166.455 105.199 166.685 105.852 166.749 105.852C166.814 105.852 166.867 102.572 166.867 98.5631C166.867 92.5386 166.834 91.2744 166.675 91.2744C166.57 91.2744 166.227 91.46 165.914 91.6871C164.6 92.638 164.22 92.762 162.688 92.7407C161.363 92.7223 161.161 92.6785 159.571 92.0625C156.794 90.9868 155.12 90.7775 152.771 91.2122ZM113.671 91.2814C112.642 91.4179 110.557 92.1032 109.329 92.7088C106.855 93.9286 103.69 96.7739 102.029 99.2707C98.993 103.835 97.71 109.06 98.1232 115.179C98.5485 121.475 101.221 127.074 105.631 130.905C110.072 134.765 115.771 135.991 120.846 134.178C123.397 133.266 125.415 131.936 127.572 129.744C130.834 126.43 132.765 122.579 133.664 117.599C134.348 113.806 134.064 109.06 132.93 105.343C132.448 103.762 130.692 100.177 129.714 98.7754C127.004 94.8914 122.304 91.7842 118.364 91.2727C117.173 91.1181 114.87 91.1224 113.671 91.2814ZM117.25 91.782C120.95 92.5454 123.564 96.2808 125.364 103.375C125.542 104.076 125.732 104.967 125.786 105.356C125.841 105.746 126.028 107.006 126.201 108.157C126.479 109.999 126.51 110.661 126.459 113.677C126.414 116.32 126.331 117.524 126.094 118.943C125.206 124.258 124.021 127.811 122.171 130.7C119.906 134.236 116.259 135.397 112.879 133.657C112.185 133.299 110.397 131.532 109.807 130.619C108.599 128.752 107.458 125.896 106.753 122.977C105.605 118.217 105.347 114.673 105.727 108.887C105.798 107.802 106.312 104.854 106.688 103.375C106.846 102.752 107.024 102.02 107.084 101.747C107.205 101.193 108.02 98.9391 108.493 97.8555C109.608 95.2965 111.408 93.1843 113.198 92.3354C114.15 91.8842 115.054 91.63 115.908 91.5741C116.048 91.5649 116.652 91.6585 117.25 91.782ZM66 92.1905C66 92.3623 66.3518 92.4057 68.0059 92.4382L70.0116 92.4774L70.3424 93.4681C70.5244 94.0129 70.7375 94.5861 70.8161 94.7418C70.8947 94.8975 71.1139 95.4707 71.303 96.0156C71.6719 97.0785 72.5665 99.5544 73.2463 101.394C73.4763 102.016 73.8131 102.94 73.9945 103.446C74.176 103.952 74.3913 104.525 74.4729 104.72C74.5547 104.914 74.7802 105.519 74.9742 106.064C75.396 107.249 76.6933 110.788 76.9977 111.584C77.1169 111.895 77.4341 112.787 77.7025 113.565C77.9711 114.344 78.253 115.108 78.3291 115.263C78.4052 115.419 78.6344 116.024 78.8384 116.608C79.3755 118.145 79.6605 118.933 80.1695 120.288C80.4181 120.949 80.7073 121.746 80.8122 122.057C80.9172 122.368 81.233 123.228 81.5139 123.968C82.0428 125.36 82.2881 126.025 83.2873 128.779C83.6121 129.675 84.067 130.917 84.2982 131.539C84.5294 132.162 84.855 133.07 85.0216 133.556C85.1882 134.043 85.3593 134.441 85.4018 134.441C85.4443 134.441 85.6898 133.756 85.9474 132.919C86.6456 130.65 87.7923 127.002 88.1605 125.878C88.339 125.333 88.6599 124.314 88.8736 123.614C89.0873 122.913 89.3934 121.926 89.5538 121.42C90.2358 119.269 90.4942 118.448 90.8683 117.245C91.0861 116.544 91.4034 115.557 91.5732 115.051C91.7432 114.545 92.0579 113.558 92.2726 112.858C92.8081 111.11 93.3211 109.469 93.6224 108.541C93.7614 108.113 94.049 107.189 94.2617 106.489C94.4743 105.788 94.7963 104.769 94.9772 104.224C95.3195 103.193 95.8803 101.412 97.6295 95.8033L98.6666 92.4774L100.467 92.4377C101.938 92.4053 102.267 92.3602 102.267 92.1901C102.267 92.0119 101.687 91.982 98.2292 91.982C94.7347 91.982 94.1917 92.0106 94.1917 92.1943C94.1917 92.3725 94.4968 92.4066 96.0879 92.4066H97.9839L97.7285 93.1496C97.588 93.5584 97.2708 94.5614 97.0236 95.3787C96.7764 96.196 96.4599 97.215 96.3204 97.6432C96.1808 98.0713 95.9027 98.9629 95.7024 99.6246C95.5021 100.286 95.0201 101.847 94.6314 103.092C94.2427 104.337 93.756 105.93 93.5502 106.63C93.3442 107.331 93.0612 108.254 92.9211 108.682C92.781 109.111 92.4949 110.034 92.2853 110.735C92.0756 111.435 91.7519 112.486 91.5659 113.07C91.1651 114.328 90.6632 115.941 90.1563 117.599C89.9541 118.26 89.6379 119.279 89.4538 119.863C89.2697 120.447 89.0157 121.275 88.8894 121.703C88.5264 122.934 88.4611 122.955 88.105 121.961C87.7786 121.049 87.6217 120.627 86.7739 118.377C86.5098 117.677 86.2138 116.849 86.116 116.537C86.0181 116.226 85.8911 115.907 85.8339 115.83C85.7765 115.752 85.6946 115.529 85.6519 115.334C85.6091 115.14 85.3085 114.28 84.9838 113.424C84.6591 112.567 84.3402 111.708 84.275 111.513C84.2098 111.318 83.8936 110.459 83.5722 109.602C83.2509 108.746 82.9613 107.95 82.9289 107.833C82.8964 107.716 82.6395 107.016 82.3578 106.276C82.0763 105.537 81.7596 104.677 81.654 104.366C81.5485 104.054 81.1972 103.099 80.8732 102.243C80.5493 101.387 80.2493 100.527 80.2065 100.332C80.1637 100.138 80.082 99.9147 80.0249 99.8369C79.9678 99.759 79.7765 99.2495 79.6 98.7046C79.4235 98.1597 79.2325 97.6502 79.1758 97.5724C79.119 97.4946 78.8971 96.9214 78.6824 96.2986C78.0745 94.5356 77.8038 93.7946 77.5593 93.2249C77.4351 92.9355 77.3333 92.633 77.3333 92.5527C77.3333 92.4601 77.9813 92.4066 79.1042 92.4066C80.5837 92.4066 80.875 92.3716 80.875 92.1943C80.875 92.0083 79.9542 91.982 73.4375 91.982C66.9825 91.982 66 92.0096 66 92.1905ZM171.117 92.1943C171.117 92.3732 171.439 92.4066 173.171 92.4066H175.225V108.189C175.225 125.411 175.238 125.714 176.029 127.457C177.667 131.066 181.079 133.333 186.123 134.165C188.995 134.638 192.53 134.431 194.633 133.666C194.984 133.538 195.431 133.383 195.626 133.32C197.027 132.871 199.08 131.347 200.119 129.982C200.674 129.252 200.993 128.638 201.33 127.647L201.788 126.303L201.826 109.355L201.865 92.4066H205.616H209.367V112.858V133.308H207.596C205.919 133.308 205.825 133.324 205.825 133.591C205.825 133.873 205.919 133.875 220.913 133.875H236V125.878C236 120.642 235.951 117.882 235.858 117.882C235.779 117.882 235.716 118.273 235.714 118.766C235.713 119.253 235.618 120.288 235.504 121.066C234.933 124.951 233.837 127.245 231.395 129.667C229.876 131.174 228.328 132.105 226.165 132.813L224.65 133.308H220.479H216.308V122.979V112.651L216.677 112.558C216.879 112.508 217.798 112.497 218.718 112.535C220.267 112.599 220.459 112.639 221.287 113.069C221.78 113.325 222.365 113.669 222.588 113.833C223.641 114.608 224.914 117.01 225.482 119.291C225.696 120.151 225.919 120.854 225.977 120.854C226.035 120.854 226.083 117.029 226.083 112.354C226.083 104.614 225.988 102.44 225.757 104.913C225.554 107.086 224.713 109.29 223.691 110.325C223.41 110.61 222.701 111.074 222.117 111.355L221.054 111.867L218.681 111.912L216.308 111.956V102.181V92.4066H219.611C224.398 92.4066 226.432 92.7379 228.546 93.8624C230.136 94.7076 231.775 96.5245 232.788 98.5644C233.818 100.638 234.231 102.121 234.995 106.489C235.073 106.938 235.124 104.422 235.134 99.5892L235.15 91.982H215.812C198.718 91.982 196.475 92.0066 196.475 92.1943C196.475 92.3745 196.829 92.4066 198.812 92.4066H201.15V109.322V126.237L200.793 127.259C200.283 128.717 199.661 129.672 198.551 130.703C197.073 132.075 195.497 132.806 193.208 133.182C191.494 133.464 188.882 132.949 186.842 131.929C184.67 130.843 182.755 128.558 182.326 126.543C182.213 126.012 182.167 120.935 182.167 109.1V92.4066H184.15C185.819 92.4066 186.133 92.3729 186.133 92.1943C186.133 92.0083 185.205 91.982 178.625 91.982C172.045 91.982 171.117 92.0083 171.117 92.1943Z" fill="white"/>
</svg>
