<svg width="302" height="226" viewBox="0 0 302 226" fill="none" xmlns="http://www.w3.org/2000/svg">
<path fill-rule="evenodd" clip-rule="evenodd" d="M213.482 94.3389C211.796 94.4936 210.386 94.6286 210.349 94.6394C210.312 94.6502 210.312 95.0785 210.349 95.5914C210.41 96.436 210.479 96.5346 211.074 96.6369L211.731 96.7501L211.787 113.251L211.843 129.751L211.389 129.87C211.013 129.969 210.947 130.133 211.005 130.83L211.074 131.671L214.851 131.731L218.628 131.791V130.797C218.628 129.897 218.579 129.803 218.106 129.803C217.75 129.803 217.543 129.646 217.452 129.309C217.38 129.037 217.319 120.982 217.317 111.408C217.315 94.9654 217.293 94.0015 216.931 94.029C216.721 94.045 215.168 94.1845 213.482 94.3389ZM232.643 94.3413C231.017 94.4962 229.656 94.6311 229.619 94.6409C229.582 94.6508 229.582 95.0789 229.619 95.5925C229.677 96.3988 229.761 96.5366 230.234 96.6031C230.535 96.6455 230.854 96.7938 230.942 96.9326C231.031 97.0714 231.104 104.477 231.106 113.39L231.11 129.595L230.549 129.809C230.065 129.993 229.998 130.134 230.056 130.846L230.124 131.671L233.683 131.731L237.241 131.791V130.797C237.241 130.06 237.156 129.803 236.913 129.803C236.625 129.803 236.584 128.442 236.584 118.87C236.584 106.551 236.543 106.874 238.083 107.002C238.879 107.069 238.884 107.076 239.026 108.277C239.207 109.815 239.25 128.649 239.074 129.309C239.001 129.581 238.805 129.803 238.639 129.803C238.426 129.803 238.336 130.097 238.336 130.792V131.78H242.168H246V130.792C246 129.97 245.93 129.803 245.588 129.803C245.345 129.803 245.121 129.6 245.043 129.309C244.971 129.037 244.91 123.697 244.908 117.441C244.905 105.136 244.912 105.215 243.711 104.104C243.162 103.596 242.958 103.555 240.962 103.555C238.568 103.555 238.042 103.777 237.077 105.2L236.584 105.926V99.9631V94L236.091 94.0297C235.821 94.0461 234.268 94.1863 232.643 94.3413ZM57.0674 95.5837C57.1237 96.3575 57.222 96.5291 57.6701 96.6341C58.0347 96.7197 58.2552 96.9675 58.3616 97.4117C58.4474 97.7701 59.2863 105.65 60.2255 114.922L61.9335 131.78H64.3818H66.8302L66.9506 131.066C67.0168 130.674 67.4435 126.972 67.8988 122.841C68.354 118.709 68.7548 115.358 68.7894 115.392C68.824 115.427 69.2483 118.906 69.7323 123.124C70.2162 127.341 70.6609 131.014 70.7205 131.286C70.8249 131.762 70.9184 131.78 73.2201 131.78H75.6111L75.7387 130.847C75.8088 130.333 76.6013 122.568 77.4997 113.59C78.3979 104.612 79.1937 97.1681 79.2682 97.0477C79.3424 96.9271 79.64 96.7382 79.9292 96.6277C80.3646 96.4617 80.4554 96.2743 80.4554 95.5431V94.659H77.7183H74.9811V95.6474C74.9811 96.4529 75.054 96.6358 75.3752 96.6358C75.9553 96.6358 76.2943 97.0747 76.3002 97.8329C76.307 98.7149 74.4606 118.03 74.392 117.794C74.1711 117.036 72.1565 97.4925 72.2691 97.1986C72.3483 96.9915 72.6459 96.7329 72.9306 96.6244C73.3565 96.4621 73.4483 96.2703 73.4483 95.5431V94.659H69.6162H65.7842V95.6474C65.7842 96.4946 65.8477 96.6358 66.2289 96.6358C66.8022 96.6358 66.7987 96.6222 67.2184 100.37L67.5754 103.555L66.7417 111.177C66.2832 115.369 65.8722 118.763 65.8282 118.718C65.7358 118.626 63.8184 98.3698 63.8154 97.454C63.8138 97.0051 63.9575 96.7896 64.3608 96.6358C64.8196 96.4608 64.9083 96.284 64.9083 95.5431V94.659H60.9542H57L57.0674 95.5837ZM148.286 94.9904C147.589 95.3838 147.024 96.3672 147.024 97.185C147.024 98.2488 147.875 99.3879 149.348 100.294C149.727 100.528 149.641 100.671 148.279 102.061L146.796 103.574L147.444 104.197L148.093 104.82L148.957 104.134C151.304 102.269 152.936 99.8713 152.936 98.2872C152.936 97.5784 151.908 95.7003 151.265 95.2331C150.502 94.6794 149.046 94.5608 148.286 94.9904ZM161.257 95.6342C161.257 96.6025 161.263 96.6097 162.078 96.6776L162.899 96.7457V113.22V129.694L162.078 129.762C161.263 129.83 161.257 129.837 161.257 130.805V131.78H165.855H170.454V130.792C170.454 129.838 170.43 129.803 169.791 129.803C169.282 129.803 169.08 129.673 168.916 129.24C168.792 128.914 168.702 125.496 168.702 121.113V113.549H171.111H173.52V121.413C173.52 127.236 173.451 129.345 173.257 129.54C173.112 129.685 172.718 129.803 172.381 129.803C171.8 129.803 171.768 129.855 171.768 130.796V131.789L176.311 131.73L180.855 131.671V130.792C180.855 129.961 180.816 129.91 180.144 129.845C179.625 129.794 179.402 129.646 179.318 129.295C179.254 129.031 179.229 121.599 179.262 112.78L179.322 96.7457L180.089 96.6358C180.814 96.5319 180.859 96.4755 180.922 95.5925L180.99 94.659H176.366H171.743L171.81 95.5925C171.871 96.4483 171.932 96.5322 172.533 96.6007C172.894 96.6418 173.262 96.79 173.351 96.9302C173.44 97.0703 173.514 100.373 173.516 104.269L173.52 111.353H171.111H168.702V104.366C168.702 96.8924 168.724 96.7345 169.797 96.5965C170.271 96.5355 170.353 96.401 170.412 95.5925L170.479 94.659H165.868H161.257V95.6342ZM223.246 98.256C222.351 101.654 221.238 103.445 220.021 103.445C219.058 103.445 218.847 103.666 218.847 104.677C218.847 105.554 218.896 105.642 219.382 105.642H219.917L219.984 117.228L220.052 128.815L220.599 129.913C221.363 131.446 222.482 132 224.813 132C228.41 132 228.908 131.272 228.915 126.002L228.92 122.53L227.989 122.597L227.059 122.665L226.949 125.96L226.84 129.254H226.292H225.745L225.688 117.558L225.631 105.861H227.276H228.92V104.763V103.665H227.278H225.635V100.04V96.4162H224.683H223.731L223.246 98.256ZM83.4394 103.755C79.894 105.076 78.7095 109.323 78.9929 119.699C79.199 127.245 80.0871 130.024 82.7275 131.387C83.8627 131.973 86.6005 132.176 88.0131 131.779C89.3491 131.404 90.7919 130.084 91.3901 128.689C92.2943 126.581 92.5253 124.89 92.6532 119.448C92.8844 109.616 91.9641 105.765 88.9891 104.114C87.7766 103.442 84.7977 103.249 83.4394 103.755ZM96.769 103.588C96.4077 103.63 95.4963 103.722 94.7435 103.792L93.3749 103.919V104.787C93.3749 105.414 93.4816 105.695 93.7581 105.797C93.969 105.875 94.2138 106.045 94.3023 106.175C94.3907 106.304 94.4645 111.627 94.4665 118.003L94.4698 129.595L93.9092 129.809C93.4246 129.993 93.3576 130.134 93.4165 130.846L93.4844 131.671L97.1522 131.731L100.82 131.791V130.823C100.82 130.034 100.737 129.833 100.374 129.738C99.9323 129.622 99.929 129.526 99.991 118.653C100.06 106.479 100.01 106.882 101.458 107.003L102.243 107.069L102.3 118.347C102.356 129.48 102.351 129.625 101.917 129.739C101.56 129.833 101.477 130.038 101.477 130.823V131.791L105.254 131.731L109.032 131.671L109.097 130.766C109.153 130.008 109.09 129.841 108.714 129.743C108.269 129.626 108.265 129.532 108.265 118.556C108.265 110.239 108.33 107.421 108.528 107.223C108.672 107.078 109.153 106.96 109.595 106.96C110.322 106.96 110.414 107.027 110.537 107.646C110.713 108.53 110.717 128.996 110.541 129.456C110.468 129.647 110.271 129.803 110.103 129.803C109.887 129.803 109.798 130.094 109.798 130.797V131.791L113.575 131.731L117.353 131.671L117.419 130.754C117.478 129.941 117.429 129.829 116.981 129.765L116.477 129.694L116.367 117.723C116.291 109.422 116.181 105.583 116.007 105.202C115.869 104.9 115.492 104.406 115.169 104.104C114.658 103.627 114.34 103.545 112.76 103.478C110.576 103.387 109.618 103.751 108.7 105.022L108.091 105.865L107.67 105.04C107.093 103.906 106.108 103.446 104.262 103.446C102.371 103.445 101.455 103.835 100.615 104.999L99.9441 105.927V104.686V103.445L98.685 103.478C97.9926 103.496 97.1303 103.545 96.769 103.588ZM122.885 103.651C120.65 104.373 119.442 106.155 118.634 109.925C118.122 112.312 117.984 121.808 118.42 124.677C119.015 128.597 119.924 130.461 121.69 131.387C122.423 131.771 123.072 131.885 124.907 131.949C126.972 132.02 127.307 131.977 128.19 131.52C129.981 130.594 130.552 129.102 130.654 125.081L130.71 122.884H129.725H128.739L128.63 125.531C128.486 129.014 128.284 129.364 126.421 129.364C123.883 129.364 123.8 129.153 123.65 122.28L123.535 117.064H127.164C129.161 117.064 130.829 116.99 130.873 116.899C130.916 116.808 130.88 115.004 130.791 112.89C130.567 107.506 129.911 105.329 128.166 104.171C127.397 103.66 127.013 103.57 125.379 103.518C124.337 103.485 123.214 103.545 122.885 103.651ZM134.98 103.577C134.679 103.613 133.664 103.706 132.724 103.784L131.015 103.924L131.082 104.837C131.141 105.659 131.213 105.76 131.805 105.862L132.462 105.975L132.519 117.784L132.575 129.593L132.012 129.808C131.526 129.993 131.459 130.134 131.518 130.846L131.586 131.671H135.199H138.812L138.881 130.83C138.938 130.13 138.873 129.969 138.49 129.869L138.03 129.748L138.093 118.717C138.143 109.759 138.212 107.617 138.456 107.323C138.855 106.84 140.358 106.829 140.54 107.307C140.614 107.498 140.673 112.598 140.673 118.64C140.673 129.44 140.666 129.627 140.235 129.74C139.882 129.833 139.797 130.039 139.797 130.818V131.78H143.63H147.462V130.792C147.462 129.962 147.394 129.803 147.039 129.803C146.627 129.803 146.614 129.491 146.546 117.997C146.478 106.516 146.463 106.163 146.013 105.186C145.406 103.871 144.533 103.445 142.44 103.445C140.473 103.445 139.564 103.824 138.716 104.999L138.046 105.927V104.686V103.445L136.787 103.478C136.094 103.496 135.281 103.541 134.98 103.577ZM152.17 103.775C150.072 104.519 148.821 106.996 149.069 109.914C149.31 112.757 150.088 114.54 153.673 120.468C155.663 123.758 156.082 124.891 156.098 127.022C156.11 128.575 156.06 128.785 155.594 129.164C154.96 129.679 153.45 129.723 152.772 129.246C152.236 128.87 151.936 127.92 151.735 125.96C151.661 125.235 151.547 124.271 151.482 123.818L151.365 122.994H150.289H149.213V127.387V131.78H150.171C151.061 131.78 151.139 131.733 151.261 131.121C151.415 130.346 151.828 130.278 152.409 130.932C153.071 131.677 154.112 132 155.83 131.995C157.732 131.989 158.875 131.54 159.867 130.406C160.799 129.341 161.138 128.244 161.138 126.289C161.14 123.118 160.076 120.321 157.015 115.446C154.811 111.934 154.2 110.508 154.077 108.581C153.933 106.336 154.251 105.861 155.9 105.861C157.01 105.861 157.135 105.914 157.515 106.541C157.742 106.915 157.992 107.78 158.07 108.463C158.149 109.146 158.271 110.175 158.34 110.749L158.467 111.792H159.533H160.6V107.728V103.665H159.724C159.003 103.665 158.848 103.74 158.848 104.091C158.848 104.692 158.45 104.867 158.005 104.463C156.907 103.466 154.005 103.124 152.17 103.775ZM184.99 103.973C183.242 104.789 182.33 106.222 181.602 109.296C181.048 111.637 180.796 116.679 180.995 121.457C181.207 126.539 182.012 129.385 183.633 130.775C184.777 131.758 185.985 132.063 188.334 131.962C190.44 131.872 191.534 131.479 192.186 130.58C192.842 129.676 193.227 127.659 193.227 125.132V122.749L192.297 122.817L191.366 122.884L191.253 125.535C191.107 128.971 190.892 129.364 189.157 129.364C186.723 129.364 186.619 129.088 186.492 122.28L186.393 117.064H190.171H193.948L193.816 113.384C193.533 105.494 192.26 103.446 187.643 103.448C186.489 103.449 185.834 103.579 184.99 103.973ZM198.401 103.869C196.293 104.564 195.197 105.939 195.199 107.886C195.203 110.825 197.054 112.377 199.079 111.139C200.303 110.391 200.331 108.479 199.143 106.788C198.766 106.252 198.499 105.771 198.55 105.72C198.601 105.67 199.136 105.569 199.739 105.498C200.673 105.387 200.907 105.438 201.307 105.839C201.755 106.289 201.775 106.481 201.718 109.841L201.658 113.37L199.85 114.09C197.588 114.991 196.465 115.73 195.655 116.852C194.665 118.224 194.432 119.561 194.432 123.873C194.432 127.07 194.501 127.92 194.846 128.925C195.633 131.222 196.617 132 198.735 132C200.221 131.999 201.284 131.472 201.979 130.39L202.52 129.549L202.746 130.22C203.193 131.548 203.776 131.883 205.769 131.956C208.865 132.069 209.861 131.099 209.938 127.896L209.979 126.179H209.212H208.446L208.381 127.662C208.325 128.953 208.262 129.145 207.898 129.145C207.492 129.145 207.477 128.803 207.415 117.991L207.351 106.837L206.792 105.745C205.93 104.063 204.893 103.58 201.986 103.505C200.186 103.458 199.408 103.537 198.401 103.869ZM125.789 105.978C125.985 106.214 126.1 107.591 126.175 110.591L126.282 114.867H124.907H123.533L123.691 111.123C123.852 107.287 124.033 106.135 124.52 105.825C124.956 105.547 125.485 105.611 125.789 105.978ZM188.41 105.856C188.68 106.027 188.75 106.844 188.806 110.466L188.873 114.867H187.656H186.439L186.453 112.396C186.471 109.141 186.743 106.397 187.09 105.979C187.405 105.597 187.925 105.549 188.41 105.856ZM86.8265 106.685C87.0299 107.297 87.1002 110.159 87.1004 117.833C87.1004 129.104 87.07 129.404 85.9094 129.54C84.7138 129.68 84.7254 129.793 84.7254 117.963C84.7254 111.972 84.8012 106.797 84.8938 106.465C85.0353 105.958 85.1813 105.861 85.8074 105.861C86.4739 105.861 86.5817 105.948 86.8265 106.685ZM201.776 128.133C201.503 128.853 200.379 128.947 200.023 128.28C199.711 127.694 199.726 118.418 200.041 117.161C200.207 116.5 200.544 115.958 201.082 115.484L201.877 114.784L201.935 121.172C201.97 125.009 201.906 127.79 201.776 128.133Z" fill="white"/>
</svg>
